<?xml version="1.0" encoding="UTF-8"?>
<svg width="40px" height="40px" viewBox="0 0 40 40" version="1.1" xmlns="http://www.w3.org/2000/svg" xmlns:xlink="http://www.w3.org/1999/xlink">
    <!-- Generator: Sketch 60 (88103) - https://sketch.com -->
    <title>图标/相机拍照</title>
    <desc>Created with Sketch.</desc>
    <g id="图标/相机拍照" stroke="none" stroke-width="1" fill="none" fill-rule="evenodd">
        <g id="图标/导航/扫描" transform="translate(1.000000, 4.000000)" fill="#444444" fill-rule="nonzero">
            <g id="拍摄">
                <path d="M33.9146293,32 L4.08539687,32 L4.08539693,32 C1.83041576,31.9968585 0.00317986161,30.183181 0,27.9449171 L0,9.81593808 L0,9.8160292 C0.00311429488,7.57778018 1.83030715,5.76406539 4.08528458,5.76087212 L8.32196189,5.76087212 L9.02105443,2.28754387 L9.0210544,2.28754399 C9.31366398,0.938984818 10.5236133,-0.0177822849 11.9132842,0.000250658476 L25.4316418,0.000250658476 L25.4316418,0.000250658476 C27.3407166,-0.0188477234 29.0004666,1.2965569 29.4040272,3.14874689 L29.9288254,5.76087224 L33.914603,5.76087224 L33.9146031,5.76087224 C36.1695842,5.76401369 37.9968201,7.57769118 38,9.81595505 L38,27.9449341 L38,27.9448429 C37.9968857,30.1830919 36.1696929,31.9968067 33.9147154,32 L33.9146293,32 Z M4.08539687,7.66200255 L4.0853968,7.66200255 C2.88734418,7.66305077 1.91639189,8.62679739 1.91533697,9.81596036 L1.91533697,27.9449394 L1.91533697,27.9449395 C1.91744554,29.133668 2.88778186,30.0968031 4.0853968,30.0988973 L33.9146292,30.0988973 L33.9146292,30.0988973 C35.1122441,30.0968045 36.0825792,29.133668 36.0846891,27.9449395 L36.0846891,9.8159605 L36.0846891,9.81603751 C36.0836759,8.62687454 35.1127604,7.66309338 33.9147078,7.66200173 L28.3315442,7.66200173 L28.1935632,6.87494212 L28.1820712,6.79699661 L27.5232005,3.52518603 L27.5232005,3.52518606 C27.2978217,2.55699373 26.4171432,1.87993117 25.4163463,1.9054402 L11.9133261,1.9054402 L11.9133261,1.9054402 C11.4392091,1.88991545 11.0196114,2.20784111 10.9096974,2.66588427 L10.0669557,6.79318698 C10.0669557,6.82170364 10.0669557,6.84641807 10.0554638,6.8711325 L9.9194759,7.66199432 L4.08539687,7.66200255 Z M18.9999944,26.087561 L18.999994,26.087561 C14.3900908,26.087561 10.6530057,22.378224 10.6530057,17.8025081 C10.6530057,13.2268107 14.3900721,9.51745515 18.999994,9.51745515 C23.6098973,9.51745515 27.3469823,13.2267921 27.3469823,17.8025081 L27.3469823,17.802482 C27.3427728,22.3764342 23.6081914,26.0833391 19.0000314,26.087561 L18.9999944,26.087561 Z M18.9999944,11.4204961 L18.9999944,11.4204961 C15.4478913,11.4204961 12.5683281,14.2786779 12.5683281,17.8044389 C12.5683281,21.330185 15.4478763,24.1883816 18.9999944,24.1883816 C22.5520974,24.1883816 25.4316606,21.3301999 25.4316606,17.8044389 C25.4316606,17.8038053 25.4316606,17.8031717 25.4316606,17.802538 L25.4316606,17.8024977 C25.4274143,14.2787974 22.5500097,11.4236419 18.9999566,11.4204961 L18.9999944,11.4204961 Z" id="形状"></path>
            </g>
        </g>
    </g>
</svg>