<?xml version="1.0" encoding="UTF-8"?>
<svg width="40px" height="40px" viewBox="0 0 40 40" version="1.1" xmlns="http://www.w3.org/2000/svg" xmlns:xlink="http://www.w3.org/1999/xlink">
    <!-- Generator: Sketch 60 (88103) - https://sketch.com -->
    <title>图标/表单/眼闭</title>
    <desc>Created with Sketch.</desc>
    <g id="图标/表单/眼闭" stroke="none" stroke-width="1" fill="none" fill-rule="evenodd">
        <path d="M38.7633153,12.4796326 L38.7633153,12.4796326 C39.1618741,11.7835897 39.0478944,10.8834155 38.4906321,10.3260835 L38.4906321,10.3260835 C37.9494416,9.83507605 37.1389101,9.90671064 36.6802601,10.4860816 C36.6427396,10.5334778 36.6082627,10.5835419 36.5770662,10.6359293 C36.5148754,10.7101898 28.9802084,20.7840199 20.0103759,20.7840199 C11.3156053,20.7840199 3.43410822,10.6384877 3.36713963,10.5565415 L3.36713966,10.5565415 C2.90529901,9.95058081 2.07204811,9.86016264 1.50602944,10.3545858 C1.48815628,10.370198 1.47066761,10.386308 1.45358159,10.4028994 L1.45358168,10.4028993 C0.905462642,10.9803038 0.846909364,11.9051536 1.31723994,12.5564484 L1.3172368,12.5564443 C2.62372814,14.2410485 4.08099095,15.7848248 5.66820675,17.1657241 L2.21183574,21.2449313 L2.21183561,21.2449315 C1.69922945,21.8414144 1.70760463,22.7615967 2.23097155,23.3472739 L2.27881077,23.3984882 L2.27881074,23.3984881 C2.44732714,23.704978 2.76301682,23.8833731 3.09446847,23.8594161 L3.09446852,23.8594161 C3.45955771,23.8557015 3.80652652,23.6885504 4.05125102,23.3984881 L7.78270222,19.0145605 L7.78269938,19.0145582 C9.68113396,20.5142835 11.7612649,21.7306771 13.9659015,22.6302889 L12.5307268,28.0897119 L12.5307269,28.0897117 C12.3103745,28.8869805 12.7150994,29.7287143 13.4492383,30 L13.8893611,30 L13.8893611,30 C14.521553,29.9949255 15.0623549,29.5124629 15.1810176,28.847681 L16.6161922,23.388258 L16.6161913,23.3882578 C17.7329104,23.637602 18.8696999,23.7696788 20.0103733,23.7826074 L20.0103731,23.7826074 C21.1514843,23.7720848 22.2889653,23.6434508 23.4069449,23.3985011 L24.8421195,28.7759974 L24.8421195,28.7759974 C24.9807097,29.4279601 25.5097714,29.8999477 26.133776,29.9283164 L26.133776,29.9283164 C26.2519864,29.9491422 26.3731937,29.9217285 26.4734332,29.8514951 L26.4734331,29.8514952 C27.2158212,29.6050023 27.6399891,28.7706057 27.4302156,27.9693744 L27.4302156,27.928403 L25.9950409,22.5509067 L25.9950403,22.5509069 C28.1996587,21.6512386 30.2797714,20.4348547 32.1782424,18.9351958 L35.8475046,23.2423136 L35.8475046,23.2423135 C36.3086119,23.8044732 37.108103,23.8600232 37.6332163,23.3663841 C37.6743118,23.327752 37.7130244,23.2863082 37.7491106,23.2423135 L37.7491107,23.2423134 C38.2773325,22.6460629 38.3060938,21.7213009 37.8160853,21.0887643 L34.3429676,17.0146739 L34.3429687,17.0146729 C35.9700191,15.6845017 37.4527121,14.163331 38.7633153,12.4796642 L38.7633153,12.4796326 Z" id="路径" fill="#818181"></path>
    </g>
</svg>