<?xml version="1.0" encoding="UTF-8"?>
<svg width="40px" height="40px" viewBox="0 0 40 40" version="1.1" xmlns="http://www.w3.org/2000/svg" xmlns:xlink="http://www.w3.org/1999/xlink">
    <!-- Generator: Sketch 60 (88103) - https://sketch.com -->
    <title>弹出/关闭</title>
    <desc>Created with Sketch.</desc>
    <g id="弹出/关闭" stroke="none" stroke-width="1" fill="none" fill-rule="evenodd">
        <g id="形状-2" fill="#444444" fill-rule="nonzero">
            <path d="M20,40 C8.95238095,40 0,31.047619 0,20 C0,8.95238095 8.95238095,0 20,0 C31.047619,0 40,8.95238095 40,20 C40,31.047619 31.047619,40 20,40 Z M20,1.9047619 C10.031746,1.9047619 1.9047619,10.031746 1.9047619,20 C1.9047619,29.968254 10.031746,38.0952381 20,38.0952381 C29.968254,38.0952381 38.0952381,29.968254 38.0952381,20 C38.0952381,10.031746 29.968254,1.9047619 20,1.9047619 Z M21.4603175,20 L29.2063492,12.2539683 C29.5873016,11.8730159 29.5873016,11.2380952 29.2063492,10.7936508 L29.1428571,10.7301587 C28.7619048,10.3492063 28.1269841,10.3492063 27.7460317,10.7301587 L20,18.5396825 L12.2539683,10.7936508 C11.8730159,10.4126984 11.2380952,10.4126984 10.8571429,10.7936508 L10.7936508,10.8571429 C10.4126984,11.2380952 10.4126984,11.8730159 10.7936508,12.3174603 L18.5396825,20 L10.7936508,27.7460317 C10.4126984,28.1269841 10.4126984,28.7619048 10.7936508,29.2063492 L10.8571429,29.2698413 C11.2380952,29.6507937 11.8730159,29.6507937 12.2539683,29.2698413 L20,21.4603175 L27.7460317,29.2063492 C28.1269841,29.5873016 28.7619048,29.5873016 29.1428571,29.2063492 L29.2063492,29.1428571 C29.5873016,28.7619048 29.5873016,28.1269841 29.2063492,27.6825397 L21.4603175,20 Z" id="形状"></path>
        </g>
    </g>
</svg>