<?xml version="1.0" encoding="UTF-8"?>
<svg width="40px" height="40px" viewBox="0 0 40 40" version="1.1" xmlns="http://www.w3.org/2000/svg" xmlns:xlink="http://www.w3.org/1999/xlink">
    <!-- Generator: Sketch 60 (88103) - https://sketch.com -->
    <title>图标/删除</title>
    <desc>Created with Sketch.</desc>
    <g id="图标/删除" stroke="none" stroke-width="1" fill="none" fill-rule="evenodd">
        <path d="M19.9985705,0 C31.0260981,0 40,8.97215174 40,20.0007147 C40,31.0278483 31.0260981,40 19.9985705,40 C8.97104285,40 0,31.0278483 0,20.0007147 C0,8.97215174 8.97104285,0 19.9985705,0 Z M27.7460317,10.7301587 L20,18.5396825 L12.2539683,10.7936508 C11.8730159,10.4126984 11.2380952,10.4126984 10.8571429,10.7936508 L10.7936508,10.8571429 C10.4126984,11.2380952 10.4126984,11.8730159 10.7936508,12.3174603 L18.5396825,20 L10.7936508,27.7460317 C10.4126984,28.1269841 10.4126984,28.7619048 10.7936508,29.2063492 L10.8571429,29.2698413 C11.2380952,29.6507937 11.8730159,29.6507937 12.2539683,29.2698413 L20,21.4603175 L27.7460317,29.2063492 C28.1269841,29.5873016 28.7619048,29.5873016 29.1428571,29.2063492 L29.2063492,29.1428571 C29.5873016,28.7619048 29.5873016,28.1269841 29.2063492,27.6825397 L21.4603175,20 L29.2063492,12.2539683 C29.5873016,11.8730159 29.5873016,11.2380952 29.2063492,10.7936508 L29.1428571,10.7301587 C28.7619048,10.3492063 28.1269841,10.3492063 27.7460317,10.7301587 Z" id="形状结合" fill="#444444" fill-rule="nonzero"></path>
    </g>
</svg>