<?xml version="1.0" encoding="UTF-8"?>
<svg width="60px" height="60px" viewBox="0 0 60 60" version="1.1" xmlns="http://www.w3.org/2000/svg" xmlns:xlink="http://www.w3.org/1999/xlink">
    <!-- Generator: Sketch 60 (88103) - https://sketch.com -->
    <title>图标/刷卡收款</title>
    <desc>Created with Sketch.</desc>
    <g id="图标/刷卡收款" stroke="none" stroke-width="1" fill="none" fill-rule="evenodd">
        <g id="编组" transform="translate(3.000000, 3.000000)" fill="#444444" fill-rule="nonzero">
            <path d="M52.1165999,35.3658167 C53.0767598,35.3658167 53.8691074,36.0966082 53.9853256,37.0411702 L54,37.2814651 L54,46.7568535 C54,51.1247714 50.6086046,54.6863162 46.3499363,54.9046473 L45.9351844,54.9152542 L36.6630611,54.9152542 C35.6228879,54.9152542 34.779661,54.0575892 34.779661,52.9996058 C34.779661,52.0230058 35.4981502,51.2170912 36.4268114,51.0988831 L36.6630611,51.0839574 L45.9351844,51.0839574 C48.2038636,51.0839574 50.057595,49.315977 50.2214287,47.0794104 L50.2331999,46.7568535 L50.2331999,37.2814651 C50.2331999,36.2234817 51.0764268,35.3658167 52.1165999,35.3658167 Z M1.88340005,35.3658167 C2.92357318,35.3658167 3.7668001,36.2234817 3.7668001,37.2814651 L3.7668001,37.2814651 L3.7668001,46.7568535 L3.77857134,47.0794104 C3.94240502,49.315977 5.79613637,51.0839574 8.0648156,51.0839574 L8.0648156,51.0839574 L17.3369389,51.0839574 L17.5731886,51.0988831 C18.5018498,51.2170912 19.220339,52.0230058 19.220339,52.9996058 C19.220339,54.0575892 18.3771121,54.9152542 17.3369389,54.9152542 L17.3369389,54.9152542 L8.0648156,54.9152542 L7.65006373,54.9046473 C3.39139537,54.6863162 1.0658141e-14,51.1247714 1.0658141e-14,46.7568535 L1.0658141e-14,46.7568535 L1.0658141e-14,37.2814651 L0.0146743602,37.0411702 C0.130892581,36.0966082 0.923240242,35.3658167 1.88340005,35.3658167 Z M35.485333,14.6440678 C36.0871297,14.6440678 36.577594,14.8220674 36.9567259,15.1780667 C37.3358578,15.534066 37.5254237,15.968852 37.5254237,16.4824248 C37.5254237,16.8909485 37.4501991,17.264456 37.29975,17.6029471 C37.1493008,17.9414382 36.9115911,18.3674701 36.5866209,18.8810429 L36.5866209,18.8810429 L31.3870977,27.1974196 L33.679943,27.1974196 L33.8964874,27.2004645 C35.4491911,27.245123 36.2255429,27.781025 36.2255429,28.8081705 C36.2255429,29.9053486 35.3770096,30.4539377 33.679943,30.4539377 L33.679943,30.4539377 L29.5997616,30.4539377 L29.5997616,32.9751129 L33.679943,32.9751129 L33.8964874,32.978224 C35.4491911,33.0238533 36.2255429,33.5714054 36.2255429,34.6208801 C36.2255429,35.694714 35.3770096,36.231631 33.679943,36.231631 L33.679943,36.231631 L29.5997616,36.231631 L29.5997616,37.6322839 L29.5966528,37.8816189 C29.540695,40.0848334 28.7293057,41.1864407 27.1624851,41.1864407 C25.5135622,41.1864407 24.6891008,40.0017217 24.6891008,37.6322839 L24.6891008,37.6322839 L24.6891008,36.231631 L20.6269733,36.231631 L20.4088931,36.2285861 C18.8451773,36.1839276 18.0633195,35.6480256 18.0633195,34.6208801 C18.0633195,33.523702 18.9178707,32.9751129 20.6269733,32.9751129 L20.6269733,32.9751129 L24.6891008,32.9751129 L24.6891008,30.4539377 L20.6269733,30.4539377 L20.4088931,30.4508266 C18.8451773,30.4051972 18.0633195,29.8576452 18.0633195,28.8081705 C18.0633195,27.7343366 18.9178707,27.1974196 20.6269733,27.1974196 L20.6269733,27.1974196 L22.9198186,27.1974196 L17.5217025,18.9860919 L17.3828435,18.7751293 C17.027412,18.2310074 16.7908539,17.8344439 16.6731692,17.5854389 C16.5407739,17.3053083 16.4745763,16.9959975 16.4745763,16.6575064 C16.4745763,16.0505568 16.6641422,15.5632463 17.0432741,15.1955749 C17.422406,14.8279035 17.9128703,14.6440678 18.514667,14.6440678 C19.1284996,14.6440678 19.6249818,14.8249855 20.0041137,15.1868208 C20.3832456,15.5486561 20.8255662,16.1322615 21.3310754,16.937637 L21.3310754,16.937637 L27.1624851,25.7967667 L32.3800622,17.4453736 L32.5766491,17.1136912 C32.7103817,16.8893274 32.8494636,16.658479 32.9938948,16.4211462 C33.2105416,16.0651469 33.4211705,15.7616721 33.6257813,15.5107218 C33.8303922,15.2597715 34.0861558,15.0525916 34.3930721,14.8891821 C34.6999884,14.7257726 35.0640754,14.6440678 35.485333,14.6440678 Z M45.9351844,0 C50.2540177,0 53.7737519,3.47599245 53.9895177,7.83877131 L54,8.26365713 L54,17.6337892 C54,18.6917726 53.1567731,19.5494376 52.1165999,19.5494376 C51.1564401,19.5494376 50.3640925,18.8186461 50.2478743,17.874084 L50.2331999,17.6337892 L50.2331999,8.26365713 C50.2331999,5.91824022 48.4688754,4.00439139 46.2416447,3.84240344 L45.9351844,3.83129681 L36.6630611,3.83129681 C35.6228879,3.83129681 34.779661,2.9736318 34.779661,1.9156484 C34.779661,0.939048343 35.4981502,0.133133778 36.4268114,0.0149256206 L36.6630611,0 L45.9351844,0 Z M17.3369389,0 L17.5731886,0.0149256206 C18.5018498,0.133133778 19.220339,0.939048343 19.220339,1.9156484 C19.220339,2.9736318 18.3771121,3.83129681 17.3369389,3.83129681 L17.3369389,3.83129681 L8.0648156,3.83129681 L7.75835529,3.84240344 C5.53112458,4.00439139 3.7668001,5.91824022 3.7668001,8.26365713 L3.7668001,8.26365713 L3.7668001,17.6337892 L3.75212574,17.874084 C3.63590752,18.8186461 2.84355986,19.5494376 1.88340005,19.5494376 C0.843226925,19.5494376 1.0658141e-14,18.6917726 1.0658141e-14,17.6337892 L1.0658141e-14,17.6337892 L1.0658141e-14,8.26365713 L0.0104823203,7.83877131 C0.226248098,3.47599245 3.74598231,0 8.0648156,0 L8.0648156,0 L17.3369389,0 Z" id="形状结合"></path>
        </g>
    </g>
</svg>