<?xml version="1.0" encoding="UTF-8"?>
<svg width="40px" height="40px" viewBox="0 0 40 40" version="1.1" xmlns="http://www.w3.org/2000/svg" xmlns:xlink="http://www.w3.org/1999/xlink">
    <!-- Generator: Sketch 60 (88103) - https://sketch.com -->
    <title>交易记录</title>
    <desc>Created with Sketch.</desc>
    <g id="交易记录" stroke="none" stroke-width="1" fill="none" fill-rule="evenodd">
        <g id="消息" transform="translate(2.000000, 3.000000)" fill="#444444">
            <path d="M10.5695745,35 C10.173118,35 9.84273848,34.8703677 9.57843333,34.5442687 C9.11383668,34.0257483 9.18197686,33.1831576 9.77666156,32.7294512 L16.9789591,26.8313045 C17.7057951,26.2499964 18.5632376,25.9259221 19.4924308,25.9259221 L33.0380436,25.9259221 L33.0380435,25.9259221 C33.7669579,25.9236982 34.357299,25.3446262 34.3595651,24.629625 L34.3595651,3.8888885 L34.3595651,3.88889242 C34.3573001,3.17389124 33.766962,2.59481819 33.0380477,2.59259127 L3.96456488,2.59259127 L3.96456483,2.59259127 C3.23565052,2.59481525 2.64530935,3.17388715 2.64304327,3.88888833 L2.64304327,24.6296249 L2.64304325,24.629621 C2.64530834,25.3446222 3.23564634,25.9236953 3.96456065,25.9259222 L9.25066361,25.9259222 L9.25066355,25.9259222 C9.97957786,25.9281461 10.569919,26.5072181 10.5721851,27.2222192 L10.5721851,27.2222133 C10.5702032,27.9373291 9.97970307,28.5165659 9.25066774,28.5185185 L3.96456477,28.5185185 L3.96456479,28.5185185 C1.77735028,28.5129531 0.00567154926,26.7750935 0,24.6296273 L0,3.88889081 L0,3.88892392 C0.0056484255,1.74444437 1.77574348,0.00697140783 3.96195224,0 L33.0354351,0 L33.0354352,0 C35.2226497,0.00556550069 36.9943284,1.74342506 37,3.88889117 L37,24.6296277 L37,24.6295875 C36.9943488,26.7750537 35.2226915,28.5129319 33.035477,28.5185197 L19.4238015,28.5185197 C19.0934211,28.5185197 18.829116,28.6481494 18.5648109,28.8425939 L11.3625133,34.7407406 L11.3625133,34.7407406 C11.1308235,34.9034503 10.8544772,34.9938072 10.5696021,35 L10.5695745,35 Z M8.76187119,16.2036819 L8.76187111,16.2036819 C7.68758328,16.2017344 6.81742681,15.6225006 6.81449955,14.9073848 L6.81449955,13.6110878 L6.81449955,13.6110938 C6.81742012,12.895978 7.68757096,12.3167412 8.76186494,12.3147885 L8.76186484,12.3147885 C9.83598048,12.3170125 10.7058971,12.8960844 10.7092364,13.6110856 L10.7092364,14.9073826 L10.7092364,14.9073787 C10.7058987,15.6223799 9.83598664,16.201453 8.761871,16.2036819 L8.76187119,16.2036819 Z M18.4987133,16.2036819 L18.4987132,16.2036819 C17.4244254,16.2017344 16.5542689,15.6225006 16.5513417,14.9073848 L16.5513417,13.6110878 L16.5513417,13.6110938 C16.5542622,12.895978 17.4244131,12.3167412 18.498707,12.3147885 L18.4987069,12.3147885 C19.5728226,12.3170125 20.4427392,12.8960844 20.4460785,13.6110856 L20.4460785,14.9073826 L20.4460785,14.9073787 C20.4427408,15.6223799 19.5728287,16.201453 18.4987131,16.2036819 L18.4987133,16.2036819 Z M28.2355554,16.2036819 L28.2355553,16.2036819 C27.1614397,16.2014579 26.291523,15.622386 26.2881838,14.9073848 L26.2881838,13.6110878 L26.2881838,13.6110916 C26.2915215,12.8960904 27.1614335,12.3170174 28.2355492,12.3147905 L28.2355491,12.3147905 C29.3098369,12.3167379 30.1799934,12.8959717 30.1829206,13.6110875 L30.1829206,14.9073846 L30.1829206,14.907388 C30.180004,15.6215213 29.3121491,16.2003488 28.2393495,16.2036819 L28.2355554,16.2036819 Z" id="形状"></path>
        </g>
    </g>
</svg>