<?xml version="1.0" encoding="UTF-8"?>
<svg width="40px" height="40px" viewBox="0 0 40 40" version="1.1" xmlns="http://www.w3.org/2000/svg" xmlns:xlink="http://www.w3.org/1999/xlink">
    <!-- Generator: Sketch 60 (88103) - https://sketch.com -->
    <title>消息</title>
    <desc>Created with Sketch.</desc>
    <g id="消息" stroke="none" stroke-width="1" fill="none" fill-rule="evenodd">
        <path d="M30.3529412,2 C33.4717256,2 36,4.54490774 36,7.68421053 L36,32.3157895 C36,35.4550923 33.4717256,38 30.3529412,38 L9.64705882,38 C6.52827435,38 4,35.4550923 4,32.3157895 L4,7.68421053 C4,4.54490774 6.52827435,2 9.64705882,2 L30.3529412,2 Z M30.3529412,4.84210526 L9.64705882,4.84210526 C8.08766659,4.84210526 6.82352941,6.11455913 6.82352941,7.68421053 L6.82352941,32.3157895 C6.82352941,33.8854409 8.08766659,35.1578947 9.64705882,35.1578947 L30.3529412,35.1578947 C31.9123334,35.1578947 33.1764706,33.8854409 33.1764706,32.3157895 L33.1764706,7.68421053 C33.1764706,6.11455913 31.9123334,4.84210526 30.3529412,4.84210526 Z M24.5835159,25 C25.3658184,25 26,25.6715729 26,26.5 C26,27.3284271 25.3658184,28 24.5835159,28 L24.5835159,28 L11.4164841,28 C10.6341816,28 10,27.3284271 10,26.5 C10,25.6715729 10.6341816,25 11.4164841,25 L11.4164841,25 Z M21.4934359,18 C22.3254883,18 23,18.6715729 23,19.5 C23,20.3284271 22.3254883,21 21.4934359,21 L21.4934359,21 L11.5065641,21 C10.6745117,21 10,20.3284271 10,19.5 C10,18.6715729 10.6745117,18 11.5065641,18 L11.5065641,18 Z M27.5817864,11 C28.3650441,11 29,11.6715729 29,12.5 C29,13.3284271 28.3650441,14 27.5817864,14 L27.5817864,14 L11.4182136,14 C10.6349559,14 10,13.3284271 10,12.5 C10,11.6715729 10.6349559,11 11.4182136,11 L11.4182136,11 Z" id="形状结合" fill="#444444"></path>
    </g>
</svg>