<?xml version="1.0" encoding="UTF-8"?>
<svg width="40px" height="40px" viewBox="0 0 40 40" version="1.1" xmlns="http://www.w3.org/2000/svg" xmlns:xlink="http://www.w3.org/1999/xlink">
    <!-- Generator: Sketch 60 (88103) - https://sketch.com -->
    <title>图标/难过实心</title>
    <desc>Created with Sketch.</desc>
    <g id="图标/难过实心" stroke="none" stroke-width="1" fill="none" fill-rule="evenodd">
        <g id="skinLayer" transform="translate(1.000000, 1.000000)" fill="#444444" fill-rule="nonzero">
            <path d="M18.9670919,1.1078659e-05 C29.2716683,0.0107289137 37.6423275,8.26301911 37.8504394,18.5153729 L37.8543958,18.9474822 C37.8431781,29.4006938 29.3600855,37.8655836 18.9069189,37.8544061 C8.45371007,37.8431882 -0.01117747,29.3600933 -2.0250468e-13,18.9069239 C0.0110704831,8.59125459 8.27253801,0.211927023 18.5358902,0.00395704127 L18.9670919,1.1078659e-05 Z M19.0623923,22.2901577 L18.724407,22.2901577 C15.6759261,22.4127831 12.9136394,24.0942461 11.4009215,26.7256917 L11.238033,27.021953 L11.1807799,27.1642393 C11.1036212,27.4061044 11.1176015,27.6682332 11.2200482,27.9005192 L11.2921108,28.0359088 L11.3702959,28.1461775 C11.5398624,28.354385 11.7855678,28.486973 12.0526833,28.5144092 L12.1877718,28.519228 L12.3350298,28.5073797 C12.6249328,28.463318 12.8835887,28.2993166 13.0470865,28.0558951 L13.27425,27.6557904 C14.3902558,25.7830319 16.3473178,24.5671059 18.520677,24.3961752 L18.8325609,24.3789072 L19.0792898,24.3789072 C21.4081492,24.3789072 23.6221582,26.0923522 24.7961756,27.764151 L24.9445107,27.9836646 L24.9445107,27.9836646 L25.0289101,28.0973337 C25.3284443,28.4484059 25.8267078,28.5594964 26.2465068,28.3703932 L26.3831535,28.2961579 L26.4959465,28.2108724 C26.8440087,27.9086671 26.9509925,27.4102237 26.7590806,26.99229 L26.6839604,26.8563402 L26.522747,26.612669 C25.0783385,24.5021151 22.417226,22.4480771 19.4107736,22.2988212 L19.0623923,22.2901577 Z M11.4611034,13.2755194 C10.8651527,13.2755194 10.2908966,13.4859375 9.83765968,13.8656321 L9.67356263,14.0158721 C9.25215507,14.4374112 8.99495662,14.9924186 8.94311079,15.5815043 L8.9329735,15.8036499 C8.9329735,17.1998971 10.0648566,18.3317805 11.4611034,18.3317805 C12.8573502,18.3317805 13.9892333,17.1998971 13.9892333,15.8036499 C13.9892333,14.4074028 12.8573502,13.2755194 11.4611034,13.2755194 Z M26.4338514,13.2755194 C25.8379008,13.2755194 25.2636446,13.4859375 24.8104077,13.8656321 L24.6463109,14.0158719 C24.225185,14.4375988 23.9680612,14.9925169 23.9159674,15.58153 L23.9057215,15.8042182 C23.9057215,17.1998971 25.0376047,18.3317805 26.4338514,18.3317805 C27.8300982,18.3317805 28.9619813,17.1998971 28.9619813,15.8036499 C28.9619813,14.4074028 27.8300982,13.2755194 26.4338514,13.2755194 Z" id="形状"></path>
        </g>
    </g>
</svg>
