<?xml version="1.0" encoding="UTF-8"?>
<svg width="40px" height="40px" viewBox="0 0 40 40" version="1.1" xmlns="http://www.w3.org/2000/svg" xmlns:xlink="http://www.w3.org/1999/xlink">
    <!-- Generator: Sketch 60 (88103) - https://sketch.com -->
    <title>图标/键盘删除</title>
    <desc>Created with Sketch.</desc>
    <g id="图标/键盘删除" stroke="none" stroke-width="1" fill="none" fill-rule="evenodd">
        <path d="M12.5048252,30.584415 C12.6687512,30.748341 12.8360921,30.9088519 13.1024705,31.1581558 C13.2356604,31.2913456 13.3705579,31.4177051 13.5566807,31.5901703 C13.6079075,31.6362745 13.6198606,31.6465198 13.7393897,31.7694643 L13.8264753,31.85655 C14.1953087,32.211723 14.6170778,32.5088399 15.0781195,32.735943 C15.5442839,32.9647562 16.0445982,33.1235594 16.5602846,33.2072301 C17.1374391,33.2994384 17.7214253,33.3489576 18.3224884,33.355788 L18.3224882,33.3557879 C18.6064787,33.3630681 18.890506,33.3687601 19.1745629,33.3728635 L29.5941055,33.3728635 L29.5941055,35.7361305 L29.5906904,34.554499 L29.5906904,33.3711586 L30.6425499,33.3711586 C30.8747784,33.3711586 31.064319,33.3677435 31.5134064,33.3557906 L31.5134059,33.3557906 C32.0979684,33.3490812 32.6812502,33.2994282 33.2585328,33.2072327 C33.7725103,33.123562 34.2711157,32.9647588 34.7372801,32.7359456 L34.73728,32.7359456 C35.6557816,32.2859978 36.4104852,31.5599531 36.8956396,30.6595491 C37.1312831,30.20363 37.296918,29.7169749 37.3857085,29.2251971 L37.3857088,29.2251953 C37.4807775,28.661956 37.5321572,28.0922133 37.539389,27.5210539 C37.5479268,27.2136927 37.5530495,26.949022 37.5530495,26.6963015 L37.5530495,14.5452911 L37.5530495,14.0552222 L37.5496344,13.8400694 L37.5496343,13.8400639 C37.5477685,13.6254462 37.5437839,13.4108509 37.5376813,13.1963144 L37.5376817,13.1963446 C37.5304699,12.6355225 37.480236,12.0760772 37.3874221,11.5229432 L37.3874224,11.5229448 C37.2981095,11.0225705 37.1340571,10.5384687 36.9007672,10.0868879 L36.9007673,10.0868881 C36.4150687,9.18198569 35.6578037,8.45219508 34.7355802,8.00024614 L34.7355805,8.00024627 C34.2671909,7.77011882 33.7670447,7.61126954 33.2517105,7.52895919 L33.2517115,7.52895934 C32.6703467,7.43263484 32.0822103,7.3829568 31.4929254,7.38040146 C31.0660336,7.36844851 30.8747893,7.36332587 30.6425596,7.36332587 L19.1711455,7.36332587 C19.0191726,7.36332587 18.8603694,7.36674098 18.6674134,7.37015609 L18.2917497,7.38040146 C17.7145951,7.38381657 17.1357316,7.43162832 16.558573,7.52895934 L16.5585726,7.52895941 C15.4084056,7.70326479 14.3535726,8.26897938 13.5720468,9.13065112 L13.5720468,9.13065118 C13.4038054,9.28262966 13.2387064,9.43805034 13.0768552,9.59681558 L13.0768568,9.59681405 C12.8784328,9.78246938 12.6826133,9.97088856 12.4894568,10.1620184 L8.3605722,14.1525545 L8.36057236,14.1525543 C8.31768748,14.1861779 8.27664636,14.2220888 8.2376279,14.2601307 L8.14029688,14.3523391 C7.93538945,14.5470011 7.85001149,14.6272564 7.74243509,14.7348328 L4.08312864,18.267777 L4.00628836,18.3412023 L3.92261769,18.4214576 L3.74332369,18.5973366 L3.74332415,18.5973362 C3.66009611,18.6757209 3.57923532,18.7565817 3.50085022,18.8398101 L3.50085074,18.8398096 C3.22803692,19.0939372 2.97193745,19.3654372 2.73415679,19.6526077 L2.64536344,19.7499388 L2.64536344,19.7499388 C2.59232283,19.8014878 2.54741449,19.8607893 2.51217361,19.9258178 L2.51217355,19.925818 C2.42840563,20.214707 2.42840563,20.5214462 2.51217359,20.8103337 L2.51217357,20.8103337 C2.55235704,20.8848599 2.60295396,20.953281 2.66243915,21.0135334 C2.95272454,21.3499229 3.19519846,21.6094738 3.4649919,21.867313 L3.5367095,21.9373229 L3.53670133,21.9373149 C3.72208693,22.1196413 3.90821251,22.3012137 4.09507407,22.4820284 L7.73730357,26.0030224 L8.09247657,26.3377046 L8.3315351,26.5665178 L8.33153506,26.5665178 C8.37353108,26.600519 8.413446,26.6370127 8.45106453,26.6758019 L12.5031089,30.5861199 L12.5048252,30.584415 Z M31.5322006,5.01537005 C32.2493766,5.02049273 32.9614299,5.08025726 33.6598241,5.19807903 C34.4213953,5.31931579 35.1590621,5.55495933 35.8455019,5.89305539 C36.5370645,6.23286033 37.1705686,6.67511739 37.718696,7.2078767 C38.2651145,7.73551332 38.7261562,8.34340402 39.0830393,9.01789363 C39.4262592,9.68042898 39.6687343,10.3890645 39.8002153,11.130149 C39.914622,11.8029297 39.9760943,12.4842469 39.9846319,13.1450734 C39.9897546,13.3363204 39.9931697,13.4831706 39.9965849,13.8127314 L40,14.0398373 L40,26.6962726 C40,26.9746053 39.9948773,27.2631818 39.9846319,27.5705429 C39.9760941,28.253569 39.914622,28.9331773 39.7985076,29.6162034 L39.7985076,29.6162033 C39.6660317,30.353874 39.4224989,31.0672 39.0762089,31.7318724 L39.0762088,31.7318727 C38.7187614,32.3974056 38.2608853,33.0038796 37.7186971,33.5299354 C37.1705697,34.0592809 36.5370656,34.5032457 35.845503,34.8430518 L35.8455031,34.8430518 C35.1554973,35.1819623 34.4188511,35.4161923 33.6598252,35.5380281 C32.9597261,35.6507272 32.2493777,35.7121995 31.5595241,35.7207371 C31.1087277,35.7326901 30.9021114,35.7361052 30.6408544,35.7361052 L29.5924128,35.7361052 L29.5924128,34.5544737 L29.5872901,33.5538411 L29.5889976,35.7361052 L19.1728568,35.7361052 L19.1728578,35.7361052 C18.8722478,35.7361052 18.5716666,35.7302283 18.2712651,35.7190296 L18.2712651,35.7190296 C17.5631258,35.7106556 16.8565594,35.6501583 16.1573048,35.5380279 L16.1573043,35.5380278 C15.3961052,35.4161311 14.6572178,35.1819195 13.9647948,34.8430515 L13.9647943,34.8430512 C13.2189993,34.4764706 12.5406237,33.9863101 11.9584104,33.3933312 L11.8849851,33.3199059 L11.8849859,33.3199065 C11.7101702,33.1602312 11.5382477,32.9974175 11.3693035,32.8315425 L11.3693022,32.8315413 C11.1636312,32.6388987 10.9604159,32.4436516 10.7597026,32.2458463 L6.80157553,28.4260317 L6.66497071,28.3013795 L6.37468533,28.0230468 L6.01268234,27.6815345 L2.36533016,24.153713 L2.18091348,23.9761267 L2.05796902,23.8565973 L2.05796931,23.8565975 C2.01276721,23.8118609 1.96723094,23.7674628 1.92136449,23.7234077 L1.85989226,23.6619355 L1.72670243,23.5321607 L1.72670253,23.5321608 C1.41994931,23.2385112 1.12815673,22.9296209 0.852432182,22.6066635 L0.852432499,22.6066639 C0.601183177,22.3445092 0.39570105,22.0420559 0.244541802,21.7119028 L0.200145327,21.597496 L0.200145197,21.5974956 C-0.066715109,20.7995893 -0.066715109,19.9365128 0.200145457,19.1386065 L0.241126942,19.0310301 C0.389684826,18.7014705 0.596299947,18.3992309 0.850726534,18.1379739 L0.850725801,18.1379748 C1.11540857,17.818663 1.39939345,17.5158566 1.70109162,17.2312594 L1.70109215,17.2312589 C1.8024725,17.1249075 1.90667073,17.0212788 2.01357598,16.9204827 L2.17750192,16.7599718 L2.26971026,16.6694711 L2.36021091,16.5840932 L5.99048614,13.08359 C6.10318522,12.9674759 6.20563893,12.8701449 6.36614988,12.7198793 L6.51470777,12.5764441 L6.67863371,12.4227635 L10.7460461,8.50049123 C10.9253401,8.32461222 11.0875584,8.16922435 11.3471092,7.92333664 C11.5178656,7.75599571 11.6920369,7.59036208 11.8867001,7.41277697 L11.8867005,7.41277653 C12.4856145,6.7885973 13.1888672,6.27372737 13.964802,5.8913389 L13.9648016,5.89133912 C14.6544591,5.55305937 15.390445,5.31885499 16.1487705,5.19636277 C16.8522874,5.08024869 17.5643407,5.01877646 18.2524855,5.01365378 L18.2524863,5.01365376 C18.499327,5.0079346 18.7461932,5.00338329 18.9930786,5 L30.6403449,5 C30.9016018,5 31.1082182,5.00341511 31.5316922,5.01707563 L31.5322006,5.01537005 Z M28.7779046,14.3147654 L28.7779046,14.3147654 C28.7382228,14.3533467 28.7016791,14.3950295 28.6686205,14.4394176 L24.0274673,18.9183657 L19.4272956,14.4821199 L19.4272957,14.48212 C19.0949634,13.9964734 18.4318618,13.8721882 17.9462152,14.2045209 C17.8946525,14.2398057 17.8462932,14.2795574 17.8016966,14.3233167 C17.3918818,14.7211785 17.3918818,15.3649308 17.8016966,15.7593776 L17.7948664,15.7525474 L17.7777908,15.7730381 L22.5367657,20.3595627 L17.9502412,24.7906857 L17.9502412,24.7906858 C17.4792222,25.0779203 17.3302361,25.6926066 17.6174715,26.1636255 C17.6625235,26.2375039 17.7169841,26.305215 17.7794852,26.3650587 C18.1483186,26.7185241 18.7169367,26.7577978 19.1284605,26.4828805 L19.2650653,26.3701814 L19.2821409,26.3889646 L24.0325914,21.8007592 L28.7898454,26.3821611 L28.7898454,26.382161 C29.2167372,26.7674242 29.8675824,26.7614871 30.2873785,26.3685006 L30.2873785,26.3685006 C30.6859251,25.9925023 30.7042051,25.3646103 30.3282059,24.9660614 C30.2731979,24.9077544 30.2113259,24.856329 30.1439433,24.8129103 L25.5232809,20.3612964 L30.2839767,15.7662474 L30.2839768,15.7662474 C30.681069,15.3684612 30.6805067,14.724085 30.2827207,14.3269928 C30.2786206,14.3228998 30.2744856,14.3188419 30.2703162,14.3148195 L30.2703162,14.3148195 C29.852321,13.9171471 29.1959049,13.9171471 28.7779057,14.3148195 L28.7779046,14.3147654 Z" id="形状" fill="#333333" fill-rule="nonzero"></path>
    </g>
</svg>