<?xml version="1.0" encoding="UTF-8"?>
<svg width="40px" height="40px" viewBox="0 0 40 40" version="1.1" xmlns="http://www.w3.org/2000/svg" xmlns:xlink="http://www.w3.org/1999/xlink">
    <!-- Generator: Sketch 60 (88103) - https://sketch.com -->
    <title>帐户提现</title>
    <desc>Created with Sketch.</desc>
    <g id="帐户提现" stroke="none" stroke-width="1" fill="none" fill-rule="evenodd">
        <g id="skinLayer" transform="translate(1.000000, 4.000000)" fill="#444444" fill-rule="nonzero">
            <path d="M32.299,11.399 L32.3,30.4 C32.3,31.449341 31.449341,32.3 30.4,32.3 L7.6,32.3 C6.55065898,32.3 5.7,31.449341 5.7,30.4 L5.699,11.399 L3.16666667,11.4 C1.41776496,11.4 0,10.0742977 0,8.43896104 L0,2.96103896 C0,1.3257023 1.41776496,0 3.16666667,0 L34.8333333,0 C36.582235,0 38,1.3257023 38,2.96103896 L38,8.43896104 C38,10.0742977 36.582235,11.4 34.8333333,11.4 L32.299,11.399 Z M30.4,7.6 L7.6,7.6 L7.6,30.4 L30.4,30.4 L30.4,7.6 Z M32.299,9.475 L34.8333333,9.47532468 C35.4454489,9.47532468 35.9416667,9.01132887 35.9416667,8.43896104 L35.9416667,2.96103896 C35.9416667,2.38867113 35.4454489,1.92467532 34.8333333,1.92467532 L3.16666667,1.92467532 C2.55455107,1.92467532 2.05833333,2.38867113 2.05833333,2.96103896 L2.05833333,8.43896104 C2.05833333,9.01132887 2.55455107,9.47532468 3.16666667,9.47532468 L5.699,9.475 L5.7,7.6 C5.7,6.55065898 6.55065898,5.7 7.6,5.7 L30.4,5.7 C31.449341,5.7 32.3,6.55065898 32.3,7.6 L32.299,9.475 Z" id="skinLayer"></path>
            <path d="M22.0455874,18.9690788 L15.0044127,18.9690788 L15.0044126,18.9690788 C14.5877617,18.9690788 14.25,18.5951853 14.25,18.1339636 C14.25,17.6727419 14.5877617,17.2988484 15.0044126,17.2988484 L22.0455874,17.2988484 L22.0455874,17.2988484 C22.4622383,17.2988484 22.8,17.6727419 22.8,18.1339636 C22.8,18.5951853 22.4622383,18.9690788 22.0455874,18.9690788 L22.0455874,18.9690788 Z M22.0455874,22.3095394 L15.0044127,22.3095394 L15.0044126,22.3095394 C14.5877617,22.3095394 14.25,21.9356459 14.25,21.4744242 C14.25,21.0132025 14.5877617,20.6393091 15.0044126,20.6393091 L22.0455874,20.6393091 L22.0455874,20.6393091 C22.4622383,20.6393091 22.8,21.0132025 22.8,21.4744242 C22.8,21.9356459 22.4622383,22.3095394 22.0455874,22.3095394 L22.0455874,22.3095394 Z M17.7705726,24.8148848 L17.7705726,17.5772093 C17.7705727,17.1159875 18.1083344,16.742094 18.5249853,16.742094 C18.9416362,16.742094 19.2793979,17.1159875 19.2793979,17.5772092 L19.2793979,24.8148847 C19.2793979,25.2761064 18.9416362,25.65 18.5249853,25.65 C18.1083344,25.65 17.7705726,25.2761065 17.7705726,24.8148848 Z M22.4781075,14.7155698 L19.0681624,18.4902903 L19.0681624,18.4902903 C18.7709504,18.8162201 18.2913296,18.8137274 17.9968965,18.4847229 C17.7024634,18.1557168 17.7047151,17.6247891 18.0019259,17.2988593 L21.411871,13.5241388 L21.411871,13.5241388 C21.7166979,13.2097141 22.1940672,13.2283671 22.4781065,13.5658019 C22.7480743,13.8865194 22.7480743,14.3837189 22.4781065,14.7044358 L22.4781075,14.7155698 Z M19.5610444,18.7129985 L19.5610444,18.7129985 C19.2607528,19.0442652 18.7749817,19.0442652 18.4746902,18.7129985 L14.9842645,14.8491882 L14.9842645,14.8491882 C14.6665978,14.5366767 14.637939,13.9982711 14.9202505,13.6466223 C15.2025621,13.2949736 15.6889381,13.263249 16.0066047,13.5757605 C16.0291805,13.59797 16.0505554,13.6216315 16.0706187,13.6466223 L19.5610443,17.5104327 L19.5610443,17.5104327 C19.8602986,17.8428476 19.8602986,18.3805835 19.5610443,18.7129985 L19.5610444,18.7129985 Z" id="形状"></path>
        </g>
    </g>
</svg>
