<?xml version="1.0" encoding="UTF-8"?>
<svg width="40px" height="40px" viewBox="0 0 40 40" version="1.1" xmlns="http://www.w3.org/2000/svg" xmlns:xlink="http://www.w3.org/1999/xlink">
    <!-- Generator: Sketch 60 (88103) - https://sketch.com -->
    <title>实名认证</title>
    <desc>Created with Sketch.</desc>
    <g id="实名认证" stroke="none" stroke-width="1" fill="none" fill-rule="evenodd">
        <g id="编组" transform="translate(2.000000, 2.000000)" fill="#444444" fill-rule="nonzero">
            <path d="M31.7647059,0 C34.1037942,0 36,1.89620577 36,4.23529412 L36,31.7647059 C36,34.1037942 34.1037942,36 31.7647059,36 L4.23529412,36 C1.89620577,36 0,34.1037942 0,31.7647059 L0,4.23529412 C0,1.89620577 1.89620577,0 4.23529412,0 L31.7647059,0 Z M31.7647059,2.11764706 L4.23529412,2.11764706 C3.14928881,2.11764706 2.25422013,2.93514393 2.13189402,3.98833173 L2.11764706,4.23529412 L2.11764706,31.7647059 C2.11764706,32.8507112 2.93514393,33.7457799 3.98833173,33.868106 L4.23529412,33.8823529 L31.7647059,33.8823529 C32.8507112,33.8823529 33.7457799,33.0648561 33.868106,32.0116683 L33.8823529,31.7647059 L33.8823529,4.23529412 C33.8823529,3.14928881 33.0648561,2.25422013 32.0116683,2.13189402 L31.7647059,2.11764706 Z" id="矩形"></path>
            <path d="M32.1288284,20.4170487 C32.5016436,20.7792615 32.5507075,21.3491589 32.2708151,21.7659011 L32.1504254,21.9142955 L23.9207303,30.3848837 C23.5507193,30.7657254 22.9659448,30.8076324 22.5486613,30.5108921 L22.4007778,30.3837409 L18.2982929,26.1484468 C17.8914347,25.7284173 17.902112,25.0580924 18.3221415,24.6512341 C18.695501,24.2895823 19.2666248,24.2578352 19.6746814,24.5502452 L19.8193541,24.6750826 L23.1607059,28.1244706 L30.6315815,20.4386457 C31.039071,20.0192285 31.7094112,20.0095592 32.1288284,20.4170487 Z M18.2117647,6.35294118 C21.7203972,6.35294118 24.5647059,9.19724982 24.5647059,12.7058824 C24.5647059,14.7858154 23.5651671,16.6322937 22.0202274,17.7911791 C22.873937,18.0852399 23.6913355,18.4799903 24.4575724,18.9676519 C24.9509057,19.2816275 25.0963039,19.9360806 24.7823283,20.4294139 C24.4683528,20.9227472 23.8138996,21.0681454 23.3205663,20.7541698 C21.8057104,19.7900594 20.0484699,19.2705882 18.2117647,19.2705882 C12.9488159,19.2705882 8.68235294,23.5370512 8.68235294,28.8 C8.68235294,29.3847721 8.2083015,29.8588235 7.62352941,29.8588235 C7.03875732,29.8588235 6.56470588,29.3847721 6.56470588,28.8 C6.56470588,23.701059 9.8412762,19.367402 14.4037577,17.7896881 C12.8583624,16.6322937 11.8588235,14.7858154 11.8588235,12.7058824 C11.8588235,9.19724982 14.7031322,6.35294118 18.2117647,6.35294118 Z M18.2117647,8.47058824 C15.8726764,8.47058824 13.9764706,10.366794 13.9764706,12.7058824 C13.9764706,15.0449707 15.8726764,16.9411765 18.2117647,16.9411765 C20.5508531,16.9411765 22.4470588,15.0449707 22.4470588,12.7058824 C22.4470588,10.366794 20.5508531,8.47058824 18.2117647,8.47058824 Z" id="形状结合"></path>
        </g>
    </g>
</svg>