<?xml version="1.0" encoding="UTF-8"?>
<svg width="40px" height="40px" viewBox="0 0 40 40" version="1.1" xmlns="http://www.w3.org/2000/svg" xmlns:xlink="http://www.w3.org/1999/xlink">
    <!-- Generator: Sketch 60 (88103) - https://sketch.com -->
    <title>送券</title>
    <desc>Created with Sketch.</desc>
    <g id="送券" stroke="none" stroke-width="1" fill="none" fill-rule="evenodd">
        <g id="编组" transform="translate(1.000000, 1.000000)" fill="#444444" fill-rule="nonzero">
            <path d="M29.3846154,-1.59872116e-14 C31.3521432,-1.59872116e-14 32.9454509,1.5829279 33.092733,3.57184203 L33.1038462,3.87307692 L33.102,13.882 L33.3036863,13.7130192 C34.5027454,12.6933283 36.3013977,12.8387349 37.3210886,14.037794 C37.7593511,14.5531489 38,15.2075985 38,15.8841078 L38,31.2769231 C38,33.9002756 35.8733526,36.0269231 33.25,36.0269231 L4.75,36.0269231 C2.12664744,36.0269231 0,33.9002756 0,31.2769231 L0,15.6752093 C0,14.1011978 1.27598846,12.8252093 2.85,12.8252093 C3.50051463,12.8252093 4.13145384,13.0477495 4.6380205,13.4558665 L4.896,13.662 L4.89615385,3.87307692 C4.89615385,1.84650653 6.39576975,0.167075277 8.32319607,0.0117248415 L8.61538462,-1.59872116e-14 L29.3846154,-1.59872116e-14 Z M2.85,14.7252093 C2.32532949,14.7252093 1.9,15.1505388 1.9,15.6752093 L1.9,31.2769231 C1.9,32.8509346 3.17598846,34.1269231 4.75,34.1269231 L33.25,34.1269231 C34.8240115,34.1269231 36.1,32.8509346 36.1,31.2769231 L36.1,15.8841078 C36.1,15.6586047 36.0197837,15.4404548 35.8736962,15.2686699 C35.5337992,14.8689835 34.9342485,14.8205146 34.5345621,15.1604116 L24.3387523,23.8310221 C21.5582595,26.1955786 17.4894859,26.2496011 14.6471944,23.9597001 L3.44600683,14.9354284 C3.27715128,14.7993894 3.06683821,14.7252093 2.85,14.7252093 Z M29.3846154,1.9 L8.61538462,1.9 C7.69340269,1.9 6.91505046,2.65207951 6.80856128,3.64091573 L6.796,3.87307692 L6.796,15.194 L15.839208,22.4801382 C17.9709267,24.1975639 21.0225069,24.1570471 23.1078765,22.3836297 L31.202,15.498 L31.2038462,3.87307692 C31.2038462,2.85086584 30.4913498,2.02577126 29.5945904,1.91311597 L29.3846154,1.9 Z" id="形状"></path>
            <path d="M21.9948711,11.1557958 L15.6769239,11.1557958 L15.6769239,11.1557958 C15.3030689,11.1557958 15,10.8190526 15,10.4036582 C15,9.98826372 15.3030689,9.65152054 15.6769239,9.65152054 L21.9948711,9.65152054 L21.9948711,9.65152054 C22.3687261,9.65152054 22.671795,9.98826372 22.671795,10.4036582 C22.671795,10.8190526 22.3687261,11.1557958 21.9948711,11.1557958 L21.9948711,11.1557958 Z M21.9948711,14.1643463 L15.6769239,14.1643463 L15.6769239,14.1643463 C15.3030689,14.1643463 15,13.8276031 15,13.4122087 C15,12.9968142 15.3030689,12.660071 15.6769239,12.660071 L21.9948711,12.660071 L21.9948711,12.660071 C22.3687261,12.660071 22.671795,12.9968142 22.671795,13.4122087 C22.671795,13.8276031 22.3687261,14.1643463 21.9948711,14.1643463 L21.9948711,14.1643463 Z M18.1589604,16.4207592 L18.1589604,9.90222329 C18.1589605,9.48682875 18.4620293,9.15008557 18.8358843,9.15008557 C19.2097393,9.15008557 19.5128081,9.48682875 19.5128081,9.9022232 L19.5128081,16.4207591 C19.5128081,16.8361535 19.2097393,17.1728968 18.8358843,17.1728968 C18.4620293,17.1728968 18.1589604,16.8361536 18.1589604,16.4207592 Z M22.3829654,7.32491794 L19.3232695,10.72458 L19.3232695,10.72458 C19.0565853,11.0181252 18.6262283,11.0158803 18.3620376,10.7195658 C18.0978469,10.42325 18.0998674,9.94507556 18.3665504,9.65153034 L21.4262463,6.25186827 L21.4262463,6.25186826 C21.6997632,5.96868492 22.1281,5.98548462 22.3829645,6.2893917 C22.6252027,6.57824252 22.6252027,7.02604 22.3829645,7.31489023 L22.3829654,7.32491794 Z M19.7655255,10.9251598 L19.7655255,10.9251598 C19.4960781,11.2235117 19.0602026,11.2235117 18.7907552,10.9251598 L15.6588453,7.44525996 L15.6588452,7.44525992 C15.3738074,7.16379974 15.3480922,6.67889044 15.6014064,6.36218174 C15.8547206,6.04547304 16.2911389,6.01690062 16.5761768,6.29836081 C16.5964337,6.31836355 16.6156131,6.33967402 16.6336156,6.36218174 L19.7655255,9.84208162 L19.7655255,9.84208163 C20.0340422,10.1414677 20.0340422,10.6257738 19.7655255,10.9251598 L19.7655255,10.9251598 Z" id="形状"></path>
        </g>
    </g>
</svg>