<?xml version="1.0" encoding="UTF-8"?>
<svg width="40px" height="40px" viewBox="0 0 40 40" version="1.1" xmlns="http://www.w3.org/2000/svg" xmlns:xlink="http://www.w3.org/1999/xlink">
    <!-- Generator: Sketch 60 (88103) - https://sketch.com -->
    <title>信用卡认证</title>
    <desc>Created with Sketch.</desc>
    <g id="信用卡认证" stroke="none" stroke-width="1" fill="none" fill-rule="evenodd">
        <g id="编组" transform="translate(1.000000, 5.000000)" fill="#444444">
            <path d="M28.1200102,0 C30.3281824,0 32.1364393,1.71225693 32.2895048,3.88148202 L32.3,4.18 L32.3,6.65 L30.4,6.65 L30.4,4.18 C30.4,2.99949394 29.5028221,2.02853049 28.3531255,1.91177141 L28.1200102,1.9 L4.18,1.9 C2.99949135,1.9 2.02853017,2.79717939 1.91177138,3.94688324 L1.9,4.18 L1.9,18.62 C1.9,19.8005087 2.79717939,20.7714698 3.94688324,20.8882286 L4.18,20.9 L4.91513672,20.9 L4.91513672,22.8 L4.18,22.8 C1.9718215,22.8 0.163561037,21.0877473 0.0104952481,18.9185185 L0,18.62 L0,4.18 C0,1.9718215 1.7122527,0.163561037 3.88148147,0.0104952481 L4.18,0 L28.1200102,0 Z" id="路径" fill-rule="nonzero"></path>
            <path d="M33.82,6.65 C35.6038797,6.65 37.05,8.09612026 37.05,9.88 L37.05,26.22 C37.05,28.0038797 35.6038797,29.45 33.82,29.45 L7.98,29.45 C6.19612026,29.45 4.75,28.0038797 4.75,26.22 L4.75,9.88 C4.75,8.09612026 6.19612026,6.65 7.98,6.65 L33.82,6.65 Z M33.82,8.55 L7.98,8.55 C7.30667284,8.55 6.75020936,9.05035288 6.66214133,9.69952688 L6.65,9.88 L6.65,26.22 C6.65,26.8933272 7.15035288,27.4497906 7.79952688,27.5378587 L7.98,27.55 L33.82,27.55 C34.4933272,27.55 35.0497906,27.0496471 35.1378587,26.4004731 L35.15,26.22 L35.15,9.88 C35.15,9.20667284 34.6496471,8.65020936 34.0004731,8.56214133 L33.82,8.55 Z" id="矩形" fill-rule="nonzero"></path>
            <path d="M34.927159,12.35 C35.4518295,12.35 35.877159,12.7753295 35.877159,13.3 C35.877159,13.7663738 35.5410962,14.1542559 35.0979227,14.2346942 L34.927159,14.25 L6.65,14.25 C6.12532949,14.25 5.7,13.8246705 5.7,13.3 C5.7,12.8336262 6.03606281,12.4457441 6.4792363,12.3653058 L6.65,12.35 L34.927159,12.35 Z" id="路径-6" fill-rule="nonzero"></path>
            <path d="M29.45,19.95 C30.499341,19.95 31.35,20.800659 31.35,21.85 C31.35,22.899341 30.499341,23.75 29.45,23.75 C29.1038256,23.75 28.7792742,23.6574211 28.4997539,23.4956715 C28.2221745,23.6570073 27.8969471,23.75 27.55,23.75 C26.500659,23.75 25.65,22.899341 25.65,21.85 C25.65,20.800659 26.500659,19.95 27.55,19.95 C27.8969471,19.95 28.2221745,20.0429927 28.5021172,20.2054127 C28.7792742,20.0425789 29.1038256,19.95 29.45,19.95 Z" id="路径"></path>
        </g>
    </g>
</svg>