<?xml version="1.0" encoding="UTF-8"?>
<svg width="40px" height="40px" viewBox="0 0 40 40" version="1.1" xmlns="http://www.w3.org/2000/svg" xmlns:xlink="http://www.w3.org/1999/xlink">
    <!-- Generator: Sketch 60 (88103) - https://sketch.com -->
    <title>交易记录</title>
    <desc>Created with Sketch.</desc>
    <g id="交易记录" stroke="none" stroke-width="1" fill="none" fill-rule="evenodd">
        <g id="编组" transform="translate(1.500000, 0.000000)" fill="#444444" fill-rule="nonzero">
            <path d="M22,6 L10,6 C8.9456382,6 8.08183488,5.18412221 8.00548574,4.14926234 L8,4.01147781 L3.94117647,4 C2.93807081,4 2.12410615,4.71509607 2.01294338,5.62110416 L2,5.83333333 L2,34.1666667 C2,35.0989442 2.74231426,35.8806315 3.71328188,35.9875446 L3.94117647,36 L28.0588235,36 C29.0619292,36 29.8758938,35.2849039 29.9870566,34.3788958 L30,34.1666667 L30,31.6552192 C30,31.1029344 30.4477153,30.6552192 31,30.6552192 C31.4909198,30.6552192 31.8992167,31.0089695 31.9838887,31.4754679 L32,31.6552192 L32,34.1666667 C32,36.191069 30.3920995,37.8364132 28.3657635,37.9885222 L28.0588235,38 L3.94117647,38 C1.87597057,38 0.169726956,36.4510559 0.0119105705,34.4673448 L0,34.1666667 L0,5.83333333 C0,3.80893102 1.60790048,2.16358678 3.63423649,2.01147781 L3.94117647,2 L8,2.01147781 L8,2 C8,0.8954305 8.8954305,0 10,0 L22,0 C23.1045695,0 24,0.8954305 24,2 L28.0588235,2 C30.1240294,2 31.830273,3.54894413 31.9880894,5.53265519 L32,5.83333333 L32,13.9478999 C32,14.5001847 31.5522847,14.9478999 31,14.9478999 C30.5090802,14.9478999 30.1007833,14.5941496 30.0161113,14.1276512 L30,13.9478999 L30,5.83333333 C30,4.90105584 29.2576857,4.11936852 28.2867181,4.01245542 L28.0588235,4 L24,4 C24,5.1045695 23.1045695,6 22,6 Z M22,2 L10,2 L10,4 L22,4 L22,2 Z" id="形状结合"></path>
            <path d="M35.4318264,17.2544018 C35.7978552,17.5815487 35.866543,18.1173917 35.6188016,18.5216371 L35.5110287,18.6663958 L24.7455982,30.7113177 C24.3775579,31.1231002 23.7453867,31.1585603 23.3336042,30.79052 C22.9675753,30.4633732 22.8988876,29.9275302 23.1466289,29.5232848 L23.2544018,29.3785261 L34.0198324,17.3336042 C34.3878726,16.9218217 35.0200439,16.8863616 35.4318264,17.2544018 Z M16,21 C16.5522847,21 17,21.4477153 17,22 C17,22.4909198 16.6462497,22.8992167 16.1797513,22.9838887 L16,23 L7,23 C6.44771525,23 6,22.5522847 6,22 C6,21.5090802 6.35375032,21.1007833 6.82024874,21.0161113 L7,21 L16,21 Z M21.3115234,13 C21.8638082,13 22.3115234,13.4477153 22.3115234,14 C22.3115234,14.4909198 21.9577731,14.8992167 21.4912747,14.9838887 L21.3115234,15 L7,15 C6.44771525,15 6,14.5522847 6,14 C6,13.5090802 6.35375032,13.1007833 6.82024874,13.0161113 L7,13 L21.3115234,13 Z" id="形状结合"></path>
        </g>
    </g>
</svg>