<?xml version="1.0" encoding="UTF-8"?>
<svg width="40px" height="40px" viewBox="0 0 40 40" version="1.1" xmlns="http://www.w3.org/2000/svg" xmlns:xlink="http://www.w3.org/1999/xlink">
    <!-- Generator: Sketch 60 (88103) - https://sketch.com -->
    <title>消息</title>
    <desc>Created with Sketch.</desc>
    <g id="消息" stroke="none" stroke-width="1" fill="none" fill-rule="evenodd">
        <path d="M2,11.3320312 L2,29.6640625 L10.1441964,29.6640625 L22.1415179,38 L22.1415179,3 L10.1441964,11.3320312 L2,11.3320312 Z M19.5700893,7.859375 L19.5700893,33.1445312 L10.9638393,27.1679687 L4.57142857,27.1679687 L4.57142857,13.8320312 L10.9678571,13.8320312 L19.5700893,7.859375 L19.5700893,7.859375 Z M29.590625,7.140625 L28.4174107,9.3671875 C32.6883929,11.4882812 35.4285714,15.7539063 35.4285714,20.5 C35.4285714,25.2578125 32.6723214,29.5351563 28.3852679,31.6523438 L29.5504464,33.8828125 C34.6892857,31.34375 38,26.2070313 38,20.5 C38,14.8085938 34.709375,9.68359375 29.590625,7.140625 Z M32.4272321,20.5 C32.4272321,16.6328125 30.0486607,13.1875 26.4526786,11.6875 L25.4401786,13.984375 C28.0959821,15.09375 29.8558036,17.6367187 29.8558036,20.4960937 C29.8558036,23.3671875 28.0839286,25.9179687 25.4120536,27.0195312 L26.4165179,29.3203125 C30.0325893,27.8359375 32.4272321,24.3828125 32.4272321,20.5 Z" id="形状" fill="#444444" fill-rule="nonzero"></path>
    </g>
</svg>