<?xml version="1.0" encoding="UTF-8"?>
<svg width="40px" height="40px" viewBox="0 0 40 40" version="1.1" xmlns="http://www.w3.org/2000/svg" xmlns:xlink="http://www.w3.org/1999/xlink">
    <!-- Generator: Sketch 60 (88103) - https://sketch.com -->
    <title>相关协议</title>
    <desc>Created with Sketch.</desc>
    <g id="相关协议" stroke="none" stroke-width="1" fill="none" fill-rule="evenodd">
        <path d="M30.4517578,1 C32.4948734,1 34.1438485,2.64443008 34.289534,4.70320365 L34.3,5 L34.3,8.12890625 C34.3,8.681191 33.8480874,9.12890625 33.290625,9.12890625 C32.7951028,9.12890625 32.3829781,8.77515593 32.2975124,8.30865751 L32.28125,8.12890625 L32.28125,5 C32.28125,3.96141158 31.5619887,3.12714043 30.6623287,3.01325776 L30.4517578,3 L5.84824219,3 C4.92401713,3 4.13873973,3.76008627 4.03127268,4.76418758 L4.01875,5 L4.01875,35 C4.01875,36.0385884 4.73801132,36.8728596 5.63767128,36.9867422 L5.84824219,37 L30.4517578,37 C31.3759829,37 32.1612603,36.2399137 32.2687273,35.2358124 L32.28125,35 L32.28125,29.5283203 C32.28125,28.9760356 32.7331626,28.5283203 33.290625,28.5283203 C33.7861472,28.5283203 34.1982719,28.8820706 34.2837376,29.348569 L34.3,29.5283203 L34.3,35 C34.3,37.0954455 32.7438938,38.8351231 30.7408305,38.9889462 L30.4517578,39 L5.84824219,39 C3.80512659,39 2.1561515,37.3555699 2.01046599,35.2967963 L2,35 L2,5 C2,2.90455445 3.5561062,1.16487685 5.55916952,1.01105377 L5.84824219,1 L30.4517578,1 Z M8.73460084,30.1251788 C12.0823101,23.5301039 13.3627704,23.7510729 13.8101601,23.8190633 C14.2575498,23.8870538 14.7049396,24.1080228 14.8437847,25.161875 C14.9672025,26.0117558 15.0289114,26.7936461 15.1060476,27.6435269 L15.1060476,27.6435269 L15.1060476,28.1364578 L15.6922824,27.4225579 C16.8493248,26.0797462 17.5589775,25.161875 18.4537569,25.3658464 C19.3485364,25.5868154 19.4102453,26.5046866 19.5490904,26.708658 C19.6725082,27.1335984 19.6725082,27.6265293 19.6107993,28.0514697 L19.6107993,28.0514697 L19.9964801,27.8305007 C20.3821609,27.6945197 20.8295506,27.8984911 20.9529685,28.391422 C21.0763863,28.7483719 20.9529685,29.1733123 20.6289966,29.3772837 C19.4102453,30.0231931 18.7005926,30.295155 18.129785,29.8022241 C17.8058132,29.3772837 17.6823953,28.8163624 17.8675221,28.3234315 C17.99094,27.8984911 17.99094,27.4735507 17.8675221,27.0486103 C17.4818413,27.4735507 17.0961605,27.9664816 16.7104797,28.391422 L16.7104797,28.391422 L16.062536,29.1733123 C15.7385641,29.5982527 15.0289114,30.380143 14.2575498,30.0911836 C13.4861882,29.8022241 13.4244793,28.8163624 13.3627704,27.5415412 C13.3627704,26.8276413 13.3627704,26.1987296 13.3010615,25.4848297 C12.0206012,27.0486103 10.9252678,28.8163624 10.0304883,30.6521049 C10.0150611,31.1960286 9.76822537,31.4 9.4442535,31.4 C9.32083565,31.4 9.18199056,31.3320095 9.0585727,31.2640191 C8.67289191,31.0430501 8.54947405,30.5501192 8.73460084,30.1251788 Z M36.802416,12.658126 C37.1837723,12.9900493 37.2553363,13.5337157 36.9972209,13.9438631 L36.884935,14.0907354 L25.6687048,26.3115152 C25.285253,26.7293098 24.6266097,26.7652877 24.197584,26.391874 C23.8162277,26.0599507 23.7446637,25.5162843 24.0027791,25.1061369 L24.115065,24.9592646 L35.3312952,12.7384848 C35.714747,12.3206902 36.3733903,12.2847123 36.802416,12.658126 Z M17.105,15.25 C17.6821376,15.25 18.15,15.6753295 18.15,16.2 C18.15,16.6663738 17.7803309,17.0542559 17.2928401,17.1346942 L17.105,17.15 L8.745,17.15 C8.16786244,17.15 7.7,16.7246705 7.7,16.2 C7.7,15.7336262 8.06966909,15.3457441 8.55715993,15.2653058 L8.745,15.25 L17.105,15.25 Z M20.9321429,9.55 C21.4942898,9.55 21.95,9.97532949 21.95,10.5 C21.95,10.9663738 21.5899327,11.3542559 21.115104,11.4346942 L20.9321429,11.45 L8.71785714,11.45 C8.15571017,11.45 7.7,11.0246705 7.7,10.5 C7.7,10.0336262 8.06006729,9.6457441 8.53489603,9.56530577 L8.71785714,9.55 L20.9321429,9.55 Z" id="形状结合" fill="#444444" fill-rule="nonzero"></path>
    </g>
</svg>