<?xml version="1.0" encoding="UTF-8"?>
<svg width="40px" height="40px" viewBox="0 0 40 40" version="1.1" xmlns="http://www.w3.org/2000/svg" xmlns:xlink="http://www.w3.org/1999/xlink">
    <!-- Generator: Sketch 60 (88103) - https://sketch.com -->
    <title>电话</title>
    <desc>Created with Sketch.</desc>
    <g id="电话" stroke="none" stroke-width="1" fill="none" fill-rule="evenodd">
        <g id="编组" transform="translate(1.117647, 0.460839)" fill="#444444" fill-rule="nonzero">
            <path d="M10.1554079,1.84024015 C11.0425211,1.24187474 12.3143844,1.57623884 12.9961943,2.58706361 C13.074821,2.70363249 13.1434945,2.82652701 13.201279,2.95407236 C14.3801378,5.5561216 15.7685766,8.22181585 17.3665954,10.9511551 L14.5410109,12.8626435 C13.7453243,13.399341 13.5172755,14.5189247 14.0048754,15.494769 C14.9577504,17.4017992 16.0252286,19.2315683 17.2073101,20.9840761 C18.3966946,22.7474112 19.7143856,24.4507374 21.160383,26.0940548 C21.8267043,26.8513019 22.8370324,27.0881195 23.6153384,26.6972233 L23.8047477,26.5863598 L26.7368064,24.6034222 C28.5952785,26.9704509 30.551961,29.2817685 32.6002387,31.5377869 C33.4174353,32.4377314 33.4602167,33.7793245 32.6958577,34.5342558 C32.6204,34.6087828 32.5384715,34.6759187 32.4508915,34.7349921 L29.1897177,36.9346816 C27.0686297,38.3653735 24.1310179,38.0475103 21.9540053,36.1517128 C17.9762534,32.6877863 14.5740027,28.8604086 11.747253,24.6695799 C8.92669585,20.487932 6.66774831,15.9275628 4.97041034,10.9884724 C4.03362446,8.2625053 4.84036777,5.42527999 6.95850483,3.9965785 L10.1554079,1.84024015 Z M11.389934,3.67049986 L8.1930307,5.82683837 C6.78093973,6.77930576 6.24311017,8.67078973 6.86763368,10.4880999 C8.4952953,15.2244389 10.6568216,19.5881339 13.3535133,23.5861436 C16.0568427,27.5939943 19.3141229,31.2582866 23.1313786,34.5824491 C24.4920144,35.7673251 26.2983158,36.0276372 27.683934,35.2696288 L27.9551918,35.1044218 L31.2163777,32.9047241 L29.9687459,31.5111891 C29.1456163,30.5787443 28.3396695,29.6393603 27.5510579,28.6930734 L26.50765,27.4235243 L24.9473273,28.4744542 L24.6618192,28.6375016 C23.0926155,29.4256181 21.0743608,28.9363922 19.7505831,27.4319726 C18.2343726,25.708861 16.8509527,23.9205697 15.6010498,22.0675124 C14.3579023,20.2244705 13.2355083,18.30057 12.2342159,16.2966399 C11.313193,14.4533768 11.6688512,12.3536885 13.050201,11.2229206 L13.3045649,11.0336807 L14.6575784,10.1183967 L14.1048896,9.11628705 C13.3552411,7.73491325 12.6587457,6.36850921 12.0154689,5.01701981 L11.389934,3.67049986 Z" id="形状"></path>
            <path d="M23.8879389,4.56277208 C24.3334601,4.66181556 24.7730264,4.78891195 25.2040902,4.9433826 C27.5289544,5.77649207 29.5410531,7.37884141 30.9431631,9.56881288 C32.6748005,12.2734767 33.2611152,15.5428492 32.6440567,18.6740885 C32.52838,19.2610858 31.9829251,19.6381475 31.4257492,19.5162794 C30.8685733,19.3944114 30.5106675,18.8197624 30.6263443,18.2327651 C31.1315854,15.668939 30.6524435,12.9971768 29.2347336,10.7828398 C28.0865336,8.98945334 26.4428126,7.68046426 24.5404839,6.99876936 C24.187457,6.87226303 23.8274108,6.76815913 23.4624613,6.68702747 C22.9056654,6.56324661 22.5495396,5.98737162 22.667032,5.40077469 C22.7845244,4.81417776 23.331143,4.43899121 23.8879389,4.56277208 Z M23.2333067,9.42276712 C24.7461127,9.94404358 26.05792,10.9755871 26.9664839,12.3946833 C28.1062703,14.1749284 28.4653065,16.3395728 28.0068678,18.3886191 C27.8763145,18.972143 27.3214724,19.3336836 26.7675934,19.1961427 C26.2137145,19.0586018 25.8705413,18.4740633 26.0010946,17.8905394 C26.3290024,16.4249164 26.0730259,14.8816234 25.2580543,13.6087101 C24.6081251,12.5935783 23.6735486,11.8586713 22.5926947,11.4862352 C22.0518321,11.2998669 21.7567821,10.6868626 21.9336822,10.1170516 C22.1105823,9.54724062 22.6924441,9.23639888 23.2333067,9.42276712 Z" id="形状"></path>
        </g>
    </g>
</svg>