<?xml version="1.0" encoding="UTF-8"?>
<svg width="40px" height="40px" viewBox="0 0 40 40" version="1.1" xmlns="http://www.w3.org/2000/svg" xmlns:xlink="http://www.w3.org/1999/xlink">
    <!-- Generator: Sketch 60 (88103) - https://sketch.com -->
    <title>关于我们</title>
    <desc>Created with Sketch.</desc>
    <g id="关于我们" stroke="none" stroke-width="1" fill="none" fill-rule="evenodd">
        <path d="M20,2 C29.9411255,2 38,10.0588745 38,20 C38,29.9411255 29.9411255,38 20,38 C10.0588745,38 2,29.9411255 2,20 C2,10.0588745 10.0588745,2 20,2 Z M20,4 C11.163444,4 4,11.163444 4,20 C4,28.836556 11.163444,36 20,36 C28.836556,36 36,28.836556 36,20 C36,11.163444 28.836556,4 20,4 Z M18.5477991,17.2083642 C19.8012432,16.4465788 20.8392192,16.3437627 21.4279165,16.8648469 C21.6901535,17.1020503 21.8402752,17.4455668 21.8402752,17.8334344 C21.8402752,18.0554342 21.7783047,18.5075606 21.0579844,21.0966626 C20.3344846,23.7102835 20.0340871,25.0375046 19.9187909,25.706967 C20.154811,25.5024987 20.5085341,25.1800513 21.0122228,24.6636715 L21.0122232,24.6636796 L21.4333476,24.2500345 L22.7367411,25.6135271 L22.2840894,26.0785171 C21.1700259,27.204851 20.3735008,27.9117485 19.8425484,28.2353602 C19.2538511,28.5940364 18.7697102,28.7692308 18.3464521,28.7692308 C17.9145495,28.7692308 17.5370534,28.6045325 17.2683005,28.2890411 C17.0016791,27.981838 16.8700171,27.5763971 16.8700171,27.0879585 C16.8700171,26.0118993 17.4030993,23.6074715 18.4977743,19.7389976 C18.3170547,19.9201029 18.0462065,20.1912013 17.6468771,20.6070968 L17.6468771,20.6070968 L17.2802797,20.9961723 L15.8461538,19.8091254 L16.2782156,19.2927456 C17.1072761,18.3159987 17.8492739,17.6290048 18.5477991,17.2083642 Z M20.6708558,11.7065336 C21.3035395,11.0923189 22.277306,11.0645574 22.8259712,11.6714187 C23.0915451,11.9658801 23.2307692,12.3455855 23.2307692,12.7790532 C23.2307692,13.3083415 23.0588533,13.7838679 22.7172309,14.1787318 C22.2798976,14.7009819 21.8022299,14.8061318 21.4812387,14.8061318 C21.084043,14.8061318 20.7359442,14.6495514 20.4671914,14.3446375 C20.2026638,14.0443444 20.068908,13.6576436 20.068908,13.2136806 C20.068908,12.6738564 20.2364433,12.2065748 20.5629024,11.8209975 L20.5629024,11.8209975 L20.5629024,11.8210024 Z" id="形状结合" fill="#444444" fill-rule="nonzero"></path>
    </g>
</svg>