<?xml version="1.0" encoding="UTF-8"?>
<svg width="40px" height="40px" viewBox="0 0 40 40" version="1.1" xmlns="http://www.w3.org/2000/svg" xmlns:xlink="http://www.w3.org/1999/xlink">
    <!-- Generator: Sketch 60 (88103) - https://sketch.com -->
    <title>账号与安全</title>
    <desc>Created with Sketch.</desc>
    <g id="账号与安全" stroke="none" stroke-width="1" fill="none" fill-rule="evenodd">
        <g id="编组" transform="translate(3.000000, 0.000000)" fill="#444444">
            <path d="M17.1428571,0 C22.9286974,0 27.6190476,4.69035024 27.6190476,10.4761905 C27.6190476,16.1671809 23.0812188,20.7983046 17.4265076,20.9486153 L17.1428571,20.952381 L17.1428571,20.952381 C10.1136396,20.952381 3.68176769,26.4892784 2.20762622,33.3351283 C2.00682088,34.2676597 1.9047619,35.2225854 1.9047619,36.1904762 C1.9047619,36.7164617 1.47836643,37.1428571 0.952380952,37.1428571 C0.426395476,37.1428571 0,36.7164617 0,36.1904762 C0,35.0875234 0.116423249,33.9981968 0.345546132,32.9341599 C1.66136836,26.8235378 6.45915147,21.6659221 12.3584142,19.7971896 C8.97855115,18.0603509 6.66666667,14.5382554 6.66666667,10.4761905 C6.66666667,4.69035024 11.3570169,0 17.1428571,0 Z M17.1428571,1.9047619 C12.4089879,1.9047619 8.57142857,5.74232119 8.57142857,10.4761905 C8.57142857,15.2100598 12.4089879,19.047619 17.1428571,19.047619 C21.8767264,19.047619 25.7142857,15.2100598 25.7142857,10.4761905 C25.7142857,5.74232119 21.8767264,1.9047619 17.1428571,1.9047619 Z" id="形状结合"></path>
            <path d="M25.4323562,22.0952381 C26.120727,22.0952381 26.7984318,22.1812944 27.4538298,22.3497385 C27.8613734,22.4544815 28.1068418,22.8697718 28.0020988,23.2773154 C27.8973559,23.6848589 27.4820656,23.9303274 27.074522,23.8255844 C26.5427865,23.6889229 25.9925099,23.6190476 25.4323562,23.6190476 C21.8009662,23.6190476 18.8571429,26.5628709 18.8571429,30.194261 C18.8571429,33.825651 21.8009662,36.7694743 25.4323562,36.7694743 C27.4330522,36.7694743 29.2850488,35.8713627 30.5270318,34.3512641 C31.0228838,33.7443766 31.4071504,33.0539785 31.659566,32.3112249 C31.7949609,31.9128142 32.2276959,31.6995978 32.6261066,31.8349927 C33.0245173,31.9703877 33.2377337,32.4031226 33.1023387,32.8015333 C32.791084,33.7174261 32.317583,34.5681482 31.7070548,35.3153913 C30.1786729,37.1860218 27.8953869,38.2932839 25.4323562,38.2932839 C20.9593894,38.2932839 17.3333333,34.6672278 17.3333333,30.194261 C17.3333333,25.7212942 20.9593894,22.0952381 25.4323562,22.0952381 Z" id="路径" fill-rule="nonzero"></path>
            <path d="M31.3015933,24.850356 C31.6735314,24.4784383 32.2765457,24.4784549 32.6484633,24.850393 C32.9790568,25.1810046 33.0157764,25.694195 32.7586309,26.0653653 L32.6484264,26.197263 L26.8747744,31.9705982 C26.5595587,32.2857966 26.0761416,32.3351003 25.7083553,32.1121784 L25.5586395,31.9999551 L22.5780778,29.274239 C22.1899262,28.9192755 22.1630221,28.3168617 22.5179857,27.9287102 C22.8335088,27.5836866 23.3445482,27.5240931 23.7268284,27.7644119 L23.8635145,27.8686181 L26.1714286,29.9790476 L31.3015933,24.850356 Z" id="路径-8" fill-rule="nonzero"></path>
        </g>
    </g>
</svg>