<?xml version="1.0" encoding="UTF-8"?>
<svg width="40px" height="40px" viewBox="0 0 40 40" version="1.1" xmlns="http://www.w3.org/2000/svg" xmlns:xlink="http://www.w3.org/1999/xlink">
    <!-- Generator: Sketch 60 (88103) - https://sketch.com -->
    <title>版本</title>
    <desc>Created with Sketch.</desc>
    <g id="版本" stroke="none" stroke-width="1" fill="none" fill-rule="evenodd">
        <g id="编组" fill="#444444" fill-rule="nonzero">
            <path d="M18.0993634,1.80625038 L2.55444499,8.80147821 C1.99144497,9.05482875 1.54070471,9.50556971 1.28735505,10.0685701 C0.714796495,11.3409251 1.28209359,12.836523 2.55444858,13.4090816 L18.0993638,20.4042789 C19.3080828,20.9482013 20.6919185,20.9482002 21.9006366,20.4042759 L37.445555,13.4090481 C38.008555,13.1556976 38.4592953,12.7049566 38.712645,12.1419562 C39.2852035,10.8696012 38.7179064,9.37400327 37.4455514,8.80144471 L21.9006362,1.80624742 C20.6919172,1.26232502 19.3080815,1.2623261 18.0993634,1.80625038 Z M21.036712,3.72608284 L36.5816273,10.7212801 C36.7936864,10.8167066 36.888236,11.0659729 36.7928095,11.278032 C36.7505846,11.3718654 36.6754612,11.4469889 36.5816279,11.489214 L21.0367095,18.4844419 C20.3774087,18.7811278 19.6225892,18.7811284 18.963288,18.4844435 L3.41837272,11.4892462 C3.20631356,11.3938198 3.11176404,11.1445534 3.20719047,10.9324943 C3.24941541,10.8386609 3.32453879,10.7635374 3.41837213,10.7213123 L18.9632905,3.72608445 C19.6225913,3.42939848 20.3774108,3.42939789 21.036712,3.72608284 Z" id="矩形"></path>
            <path d="M34.3248085,17.6733003 C34.5368675,17.2020579 35.0528077,16.9629336 35.5371828,17.0831655 L35.7166886,17.1453458 L37.5948737,17.9905291 C38.8301179,18.5463889 39.3808677,19.9983657 38.8250078,21.2336099 C38.6200405,21.6890927 38.2819946,22.0688913 37.8586986,22.3251768 L37.5948737,22.463744 L21.8272027,29.559196 C20.7942978,30.0240032 19.6283745,30.0756484 18.56591,29.7141317 L18.1727973,29.559196 L2.40512631,22.463744 C1.16988211,21.9078841 0.619132303,20.4559074 1.17499219,19.2206632 C1.37995946,18.7651803 1.7180054,18.3853818 2.14130136,18.1290962 L2.40512631,17.9905291 L4.00623966,17.270028 C4.53638738,17.0314616 5.15955337,17.2678349 5.39811985,17.7979826 C5.61017894,18.269225 5.44697697,18.8139634 5.03575216,19.0967514 L4.87016529,19.1898628 L3.26905195,19.9103638 C3.19163942,19.9451994 3.12966258,20.0071763 3.09482694,20.0845888 C3.03184539,20.2245478 3.06917112,20.3841523 3.17619444,20.4827039 L3.26905195,20.5439093 L19.0367229,27.6393612 C19.5618091,27.87565 20.1521012,27.9094055 20.6958177,27.7406278 L20.9632771,27.6393612 L36.7309481,20.5439093 C36.8083606,20.5090736 36.8703374,20.4470968 36.9051731,20.3696843 C36.9681546,20.2297253 36.9308289,20.0701208 36.8238056,19.9715692 L36.7309481,19.9103638 L34.852763,19.0651805 C34.3226153,18.8266141 34.086242,18.2034481 34.3248085,17.6733003 Z" id="路径"></path>
            <path d="M34.3248085,25.6733003 C34.5368675,25.2020579 35.0528077,24.9629336 35.5371828,25.0831655 L35.7166886,25.1453458 L37.5948737,25.9905291 C38.8301179,26.5463889 39.3808677,27.9983657 38.8250078,29.2336099 C38.6200405,29.6890927 38.2819946,30.0688913 37.8586986,30.3251768 L37.5948737,30.463744 L21.8272027,37.559196 C20.7942978,38.0240032 19.6283745,38.0756484 18.56591,37.7141317 L18.1727973,37.559196 L2.40512631,30.463744 C1.16988211,29.9078841 0.619132303,28.4559074 1.17499219,27.2206632 C1.37995946,26.7651803 1.7180054,26.3853818 2.14130136,26.1290962 L2.40512631,25.9905291 L4.00623966,25.270028 C4.53638738,25.0314616 5.15955337,25.2678349 5.39811985,25.7979826 C5.61017894,26.269225 5.44697697,26.8139634 5.03575216,27.0967514 L4.87016529,27.1898628 L3.26905195,27.9103638 C3.19163942,27.9451994 3.12966258,28.0071763 3.09482694,28.0845888 C3.03184539,28.2245478 3.06917112,28.3841523 3.17619444,28.4827039 L3.26905195,28.5439093 L19.0367229,35.6393612 C19.5618091,35.87565 20.1521012,35.9094055 20.6958177,35.7406278 L20.9632771,35.6393612 L36.7309481,28.5439093 C36.8083606,28.5090736 36.8703374,28.4470968 36.9051731,28.3696843 C36.9681546,28.2297253 36.9308289,28.0701208 36.8238056,27.9715692 L36.7309481,27.9103638 L34.852763,27.0651805 C34.3226153,26.8266141 34.086242,26.2034481 34.3248085,25.6733003 Z" id="路径"></path>
        </g>
    </g>
</svg>