<?xml version="1.0" encoding="UTF-8"?>
<svg width="40px" height="40px" viewBox="0 0 40 40" version="1.1" xmlns="http://www.w3.org/2000/svg" xmlns:xlink="http://www.w3.org/1999/xlink">
    <!-- Generator: Sketch 60 (88103) - https://sketch.com -->
    <title>设备管理</title>
    <desc>Created with Sketch.</desc>
    <g id="设备管理" stroke="none" stroke-width="1" fill="none" fill-rule="evenodd">
        <g id="编组" transform="translate(5.000000, 1.000000)" fill="#444444">
            <path d="M24.765,0 C27.4573882,0 29.64,2.18261184 29.64,4.875 L29.64,34.125 C29.64,36.8173882 27.4573882,39 24.765,39 L4.875,39 C2.18261184,39 3.55271368e-15,36.8173882 3.55271368e-15,34.125 L3.55271368e-15,4.875 C3.55271368e-15,2.18261184 2.18261184,0 4.875,0 L24.765,0 Z M24.765,2.4375 L4.875,2.4375 C3.60799381,2.4375 2.5667709,3.40419314 2.44865819,4.64025248 L2.4375,4.875 L2.4375,34.125 C2.4375,35.3920062 3.40419314,36.4332291 4.64025248,36.5513418 L4.875,36.5625 L24.765,36.5625 C26.0320062,36.5625 27.0732291,35.5958069 27.1913418,34.3597475 L27.2025,34.125 L27.2025,4.875 C27.2025,3.60799381 26.2358069,2.5667709 24.9997475,2.44865819 L24.765,2.4375 Z" id="矩形备份-2" fill-rule="nonzero"></path>
            <path d="M23.335,4.68 C24.2324627,4.68 24.96,5.40753728 24.96,6.305 L24.96,17.095 C24.96,17.9924627 24.2324627,18.72 23.335,18.72 L6.305,18.72 C5.40753728,18.72 4.68,17.9924627 4.68,17.095 L4.68,6.305 C4.68,5.40753728 5.40753728,4.68 6.305,4.68 L23.335,4.68 Z M22.845875,6.790875 L6.790875,6.790875 L6.790875,16.605875 L22.845875,16.605875 L22.845875,6.790875 Z" id="矩形备份-3" fill-rule="nonzero"></path>
            <circle id="椭圆形" cx="15.0234783" cy="30.9809783" r="2.54347826"></circle>
            <path d="M8.82443237,30.0625 C9.27316373,30.0625 9.63693237,30.4262686 9.63693237,30.875 C9.63693237,31.2738723 9.34951024,31.6056136 8.97048028,31.6744095 L8.82443237,31.6875 L6.5,31.6875 C6.05126864,31.6875 5.6875,31.3237314 5.6875,30.875 C5.6875,30.4761277 5.97492214,30.1443864 6.3539521,30.0755905 L6.5,30.0625 L8.82443237,30.0625 Z" id="路径-7" fill-rule="nonzero"></path>
            <path d="M23.4494324,30.0625 C23.8981637,30.0625 24.2619324,30.4262686 24.2619324,30.875 C24.2619324,31.2738723 23.9745102,31.6056136 23.5954803,31.6744095 L23.4494324,31.6875 L21.125,31.6875 C20.6762686,31.6875 20.3125,31.3237314 20.3125,30.875 C20.3125,30.4761277 20.5999221,30.1443864 20.9789521,30.0755905 L21.125,30.0625 L23.4494324,30.0625 Z" id="路径-7" fill-rule="nonzero"></path>
            <path d="M8.82443237,24.375 C9.27316373,24.375 9.63693237,24.7387686 9.63693237,25.1875 C9.63693237,25.5863723 9.34951024,25.9181136 8.97048028,25.9869095 L8.82443237,26 L6.5,26 C6.05126864,26 5.6875,25.6362314 5.6875,25.1875 C5.6875,24.7886277 5.97492214,24.4568864 6.3539521,24.3880905 L6.5,24.375 L8.82443237,24.375 Z" id="路径-7" fill-rule="nonzero"></path>
            <path d="M16.1369324,24.375 C16.5856637,24.375 16.9494324,24.7387686 16.9494324,25.1875 C16.9494324,25.5863723 16.6620102,25.9181136 16.2829803,25.9869095 L16.1369324,26 L13.8125,26 C13.3637686,26 13,25.6362314 13,25.1875 C13,24.7886277 13.2874221,24.4568864 13.6664521,24.3880905 L13.8125,24.375 L16.1369324,24.375 Z" id="路径-7" fill-rule="nonzero"></path>
            <path d="M23.4494324,24.375 C23.8981637,24.375 24.2619324,24.7387686 24.2619324,25.1875 C24.2619324,25.5863723 23.9745102,25.9181136 23.5954803,25.9869095 L23.4494324,26 L21.125,26 C20.6762686,26 20.3125,25.6362314 20.3125,25.1875 C20.3125,24.7886277 20.5999221,24.4568864 20.9789521,24.3880905 L21.125,24.375 L23.4494324,24.375 Z" id="路径-7" fill-rule="nonzero"></path>
        </g>
    </g>
</svg>