<?xml version="1.0" encoding="UTF-8"?>
<svg width="40px" height="40px" viewBox="0 0 40 40" version="1.1" xmlns="http://www.w3.org/2000/svg" xmlns:xlink="http://www.w3.org/1999/xlink">
    <!-- Generator: Sketch 60 (88103) - https://sketch.com -->
    <title>成功</title>
    <desc>Created with Sketch.</desc>
    <g id="成功" stroke="none" stroke-width="1" fill="none" fill-rule="evenodd">
        <path d="M31.4719684,14.8133602 L18.5386481,27.7466805 L18.538648,27.7466806 C17.8335035,28.454708 16.687898,28.4570478 15.9798707,27.7519021 C15.9781266,27.7501651 15.976386,27.7484245 15.9746491,27.7466805 L8.52796937,20.3000008 L8.52796945,20.3000008 C7.83721164,19.576911 7.86342257,18.4307587 8.58651554,17.7400008 C9.28633195,17.0714774 10.3881523,17.0714774 11.0879687,17.7400007 L17.2546484,23.9080085 L28.9119921,12.2519929 L28.911992,12.251993 C29.6350819,11.5612352 30.7812342,11.5874461 31.471992,12.3105391 C32.1405154,13.0103555 32.1405154,14.1121758 31.4719922,14.8119922 M0,20 C0,31.0453516 8.95464844,40 20,40 C31.0453516,40 40,31.0453516 40,20 C40,8.95464844 31.0453516,0 20,0 C8.95464844,0 0,8.95464844 0,20 Z" id="形状" fill="#444444"></path>
    </g>
</svg>