<?xml version="1.0" encoding="UTF-8"?>
<svg width="40px" height="40px" viewBox="0 0 40 40" version="1.1" xmlns="http://www.w3.org/2000/svg" xmlns:xlink="http://www.w3.org/1999/xlink">
    <!-- Generator: Sketch 60 (88103) - https://sketch.com -->
    <title>积分</title>
    <desc>Created with Sketch.</desc>
    <g id="积分" stroke="none" stroke-width="1" fill="none" fill-rule="evenodd">
        <path d="M29.2618941,3 C30.4538164,3 31.5611276,3.5854203 32.091233,4.54357477 C34.6816981,7.97468587 36,10.6527535 36,12.7071476 C36,16.0679387 32.853084,19 29.1428571,19 C26.7755685,19 24.7873532,17.1398489 23.5714286,15.9559931 C22.355504,17.1398489 20.3672887,19 18,19 C15.6327113,19 13.644496,17.1398489 12.4285714,15.9559931 C11.2126468,17.1398489 9.22443151,19 6.85714286,19 C6.70845971,19 6.56058461,18.9950785 6.41369548,18.9854163 L6.41362044,28.3021855 C6.42504947,32.4570701 6.6958,32.6377172 7.91957263,32.6455715 L20.5013133,32.6459285 C21.265199,32.6459285 22,34.1402399 22,34.968667 C22,35.7970941 21.001196,37.4464502 20.2373103,37.4464502 L20.2373103,37.4464502 L6.41323489,37.4464502 C3.97451467,37.4464502 2,35.2957179 2,32.6459285 L2,32.6459285 L2.00045754,17.0390139 C0.774406386,15.8812208 0,14.3280161 0,12.7071476 C0,10.6574321 1.30294222,8.0085245 3.86154217,4.63588886 C4.3672251,3.62716688 5.50578538,3 6.73967702,3 L29.2618941,3 Z M34.091913,21.7979998 C34.2600264,21.9484918 34.38472,22.1371404 34.4541621,22.3460459 L35.6937641,26.075187 L39.2649818,27.8213004 C39.9313657,28.1471225 40.1924808,28.922499 39.8481986,29.5531523 C39.7583062,29.7178164 39.6318469,29.8621337 39.4774927,29.9762076 L36.1979177,32.3999432 L35.5518489,36.357233 C35.4373179,37.0587565 34.7435546,37.5395862 34.0022852,37.4311962 C33.7857918,37.39954 33.5806024,37.3187923 33.4042223,37.1958416 L30.1889148,34.9545229 L26.2646068,35.6293493 C25.5266253,35.756253 24.8196688,35.2929542 24.6855751,34.5945425 C24.6466807,34.3919652 24.6597799,34.1835096 24.7237702,33.9867228 L25.9687665,30.1580348 L24.1381453,26.6118363 C23.808898,25.9740329 24.088326,25.2043948 24.7622651,24.8928013 C24.9391035,24.8110407 25.1326062,24.7666311 25.3293747,24.7626477 L29.3405069,24.6814446 L32.171993,21.848516 C32.6874242,21.3328222 33.5470017,21.3102053 34.091913,21.7979998 Z" id="形状结合" fill="#444444" fill-rule="nonzero"></path>
    </g>
</svg>