<?xml version="1.0" encoding="UTF-8"?>
<svg width="40px" height="40px" viewBox="0 0 40 40" version="1.1" xmlns="http://www.w3.org/2000/svg" xmlns:xlink="http://www.w3.org/1999/xlink">
    <!-- Generator: Sketch 60 (88103) - https://sketch.com -->
    <title>我的</title>
    <desc>Created with Sketch.</desc>
    <g id="我的" stroke="none" stroke-width="1" fill="none" fill-rule="evenodd">
        <g id="底部tab/账户" transform="translate(1.000000, 1.000000)" fill="#444444" fill-rule="nonzero">
            <g id="形状结合-2">
                <path d="M29.2861653,21.3152236 C29.4680371,21.4760782 29.6359467,21.6542854 29.7878017,21.847687 L37.0860503,31.14269 C38.4800555,32.9180863 38.2532436,35.5660268 36.5844139,37.0420066 C35.883756,37.6616965 35.0033391,38 34.0953221,38 L3.90456684,38 C1.754298,38 0,36.1381196 0,33.8261166 C0,32.8437629 0.324050085,31.8938319 0.91383436,31.1426885 L8.21210363,21.8476854 C9.59220867,20.0899974 12.0004648,19.5832986 13.652771,21.0446603 C14.5989298,21.8814787 16.0474168,23.1535009 17.998232,24.8607271 L18.3477191,25.1665073 C18.7229462,25.4947849 19.2826608,25.4965217 19.6599179,25.1705791 C21.0930576,23.9323753 22.4147807,22.7362102 23.6250872,21.5820836 C25.7159685,19.5882566 27.6338615,19.85386 29.2861653,21.3152236 Z M19,-5.68434189e-14 C24.2467051,-5.68434189e-14 28.5,4.25329488 28.5,9.5 C28.5,14.7467051 24.2467051,19 19,19 C13.7532949,19 9.5,14.7467051 9.5,9.5 C9.5,4.25329488 13.7532949,-5.68434189e-14 19,-5.68434189e-14 Z" id="形状结合"></path>
            </g>
        </g>
    </g>
</svg>