<?xml version="1.0" encoding="UTF-8"?>
<svg width="40px" height="40px" viewBox="0 0 40 40" version="1.1" xmlns="http://www.w3.org/2000/svg" xmlns:xlink="http://www.w3.org/1999/xlink">
    <!-- Generator: Sketch 60 (88103) - https://sketch.com -->
    <title>设置</title>
    <desc>Created with Sketch.</desc>
    <g id="设置" stroke="none" stroke-width="1" fill="none" fill-rule="evenodd">
        <g id="底部tab/设置" transform="translate(1.000000, 1.000000)" fill="#444444" fill-rule="nonzero">
            <g id="形状结合-2">
                <path d="M13.3990629,5.68434189e-14 C14.0817879,5.68434189e-14 14.7505894,0.284149623 15.1872143,0.759616941 C15.7697183,1.38917508 17.6099196,3.02637077 19.0992236,3.02637077 C20.574604,3.02637077 22.4038842,1.42188797 22.9841214,0.802811324 C23.4183988,0.337207581 24.0824967,0.0577082105 24.75826,0.0577082105 C25.0860017,0.0577082105 25.3952464,0.121905006 25.6766872,0.248544682 L25.7264728,0.270689088 L30.4775566,2.99721027 L30.5244265,3.03163272 C31.3744817,3.64365171 31.6981782,4.8432643 31.2771737,5.822307 C31.274345,5.82989309 30.8475531,6.84682378 30.8475531,7.77395179 C30.8475531,10.5879116 33.0641514,12.8768454 35.7879709,12.8768454 L35.9536041,12.8768454 C36.7463445,12.8586914 37.3965655,13.5786684 37.6021494,14.7007111 C37.618382,14.7893761 38,16.8909877 38,18.5474323 C38,20.2038341 37.6183819,22.3060165 37.6021494,22.3948135 C37.3965655,23.5167233 36.7463487,24.2349885 35.9529534,24.2181093 L35.787973,24.2181093 C33.0641195,24.2181093 30.8475553,26.5074887 30.8475553,29.32096 C30.8475553,30.248658 31.2743478,31.2650201 31.2783496,31.2749702 C31.6981339,32.2511204 31.3738302,33.451303 30.5232506,34.063232 L30.4752057,34.0977421 L25.6442546,36.8557506 L25.5938595,36.8784651 C25.3175573,37.0021669 25.0152724,37.0640394 24.6957139,37.0640394 C24.0043055,37.0640394 23.3326759,36.768223 22.898356,36.2739867 C22.307759,35.6048294 20.4339182,33.8637144 18.9006574,33.8637144 C17.3777521,33.8637144 15.4755367,35.6140425 14.9288964,36.2279469 C14.4964052,36.7139823 13.8286925,37.0044474 13.144313,37.0044474 C12.818312,37.0044474 12.5108054,36.9396807 12.2300238,36.8125148 L12.1808472,36.7902827 L7.52009255,34.0977428 L7.47370147,34.0644605 C6.62486261,33.4513016 6.30177853,32.2505492 6.72278298,31.2732591 C6.72561172,31.2656292 7.1524461,30.2486995 7.1524461,29.3210016 C7.1524461,26.507526 4.9358478,24.2181508 2.21198581,24.2181508 L2.01684669,24.2187208 C1.23629054,24.2187208 0.601043546,23.5027782 0.397807206,22.3948551 C0.381574623,22.3061023 0,20.2038758 0,18.547474 C0,16.8916422 0.381574751,14.7894169 0.397807206,14.7007528 C0.60334728,13.5787572 1.25247664,12.8576381 2.04635251,12.8768871 L2.21198573,12.8768871 C4.93583921,12.8768871 7.15244601,10.5879447 7.15244601,7.77399345 C7.15244601,6.84682258 6.725611,5.82993337 6.72160913,5.81998324 C6.3018248,4.84269317 6.62665082,3.64308059 7.47901312,3.03220145 L7.5270581,2.99720894 L12.4460418,0.206534673 L12.4969153,0.183732538 C12.7743492,0.0612588916 13.077765,5.68434189e-14 13.3990629,5.68434189e-14 Z M18.9168626,11.7262715 C15.2885821,11.7262715 12.3371238,14.7742694 12.3371238,18.5217593 C12.3371238,22.2693734 15.2885523,25.3179327 18.9168626,25.3179327 C22.5445775,25.3179327 25.4965163,22.2693777 25.4965163,18.5217593 C25.4965163,14.7742609 22.5445647,11.7262715 18.9168626,11.7262715 Z" id="形状结合"></path>
            </g>
        </g>
    </g>
</svg>